G04 EAGLE Gerber RS-274X export*
G75*
%MOMM*%
%FSLAX34Y34*%
%LPD*%
%INTop Copper*%
%IPPOS*%
%AMOC8*
5,1,8,0,0,1.08239X$1,22.5*%
G01*
%ADD10C,1.422400*%
%ADD11P,1.429621X8X22.500000*%
%ADD12P,1.429621X8X292.500000*%
%ADD13P,1.429621X8X112.500000*%
%ADD14C,1.320800*%
%ADD15P,1.732040X8X22.500000*%
%ADD16C,1.422400*%
%ADD17C,3.327400*%
%ADD18C,0.304800*%


D10*
X43688Y330200D02*
X57912Y330200D01*
X57912Y355600D02*
X43688Y355600D01*
X43688Y127000D02*
X57912Y127000D01*
X57912Y152400D02*
X43688Y152400D01*
D11*
X114300Y355600D03*
X139700Y355600D03*
X88900Y292100D03*
X190500Y292100D03*
D12*
X215900Y381000D03*
X215900Y279400D03*
D13*
X50800Y190500D03*
X50800Y292100D03*
D14*
X101600Y177800D03*
X127000Y177800D03*
X127000Y254000D03*
X101600Y254000D03*
X152400Y177800D03*
X177800Y177800D03*
X152400Y254000D03*
X177800Y254000D03*
D15*
X114300Y127000D03*
X165100Y127000D03*
D12*
X215900Y254000D03*
X215900Y152400D03*
X215900Y127000D03*
X215900Y25400D03*
D16*
X79375Y65278D03*
X104267Y65278D03*
X124333Y65278D03*
X149225Y65278D03*
D17*
X179959Y38100D03*
X48641Y38100D03*
D18*
X50292Y293370D02*
X50292Y329692D01*
X185420Y393700D02*
X238760Y393700D01*
X185420Y393700D02*
X170180Y378460D01*
X170180Y297180D01*
X127000Y254000D01*
X238760Y340360D02*
X238760Y393700D01*
X238760Y340360D02*
X190500Y292100D01*
X190500Y78740D01*
X215900Y53340D01*
X215900Y25400D01*
X215900Y330200D02*
X215900Y381000D01*
X215900Y330200D02*
X152400Y266700D01*
X152400Y254000D01*
X127000Y177800D02*
X127000Y139700D01*
X114300Y127000D01*
X127000Y228600D02*
X152400Y254000D01*
X127000Y228600D02*
X127000Y177800D01*
X215900Y152400D02*
X215900Y127000D01*
X215900Y254000D02*
X215900Y279400D01*
X50800Y127000D02*
X78740Y99060D01*
X78740Y66040D01*
X152400Y177800D02*
X152400Y182880D01*
X144780Y190500D01*
X50800Y190500D01*
X139700Y282194D02*
X139700Y355600D01*
X139700Y282194D02*
X114554Y257048D01*
X114554Y251460D01*
X64262Y201168D01*
X44704Y201168D01*
X39116Y195580D01*
X39116Y184404D01*
X48260Y175260D02*
X49784Y173736D01*
X48260Y175260D02*
X39116Y184404D01*
X93980Y170180D02*
X101600Y177800D01*
X93980Y170180D02*
X93980Y99060D01*
X149860Y99060D01*
X93980Y99060D02*
X78740Y114300D01*
X149860Y111760D02*
X165100Y127000D01*
X149860Y111760D02*
X149860Y99060D01*
X149860Y66040D01*
X78740Y144780D02*
X49784Y173736D01*
X78740Y144780D02*
X78740Y114300D01*
X177800Y68580D02*
X177800Y177800D01*
X177800Y68580D02*
X200660Y45720D01*
X200660Y22860D01*
X193040Y15240D01*
X27940Y15240D01*
X27940Y152400D01*
X50800Y152400D01*
X27940Y152400D02*
X27940Y198120D01*
X91440Y261620D01*
X88900Y264160D01*
X88900Y292100D01*
X91440Y261620D02*
X99060Y254000D01*
X101600Y254000D01*
X114300Y355600D02*
X50800Y355600D01*
M02*
