G04 EAGLE Gerber RS-274X export*
G75*
%MOMM*%
%FSLAX34Y34*%
%LPD*%
%INSilkscreen Top*%
%IPPOS*%
%AMOC8*
5,1,8,0,0,1.08239X$1,22.5*%
G01*
%ADD10C,0.152400*%
%ADD11C,0.127000*%
%ADD12C,0.203200*%
%ADD13C,0.254000*%
%ADD14R,0.863600X0.609600*%
%ADD15R,0.609600X0.863600*%
%ADD16C,0.304800*%


D10*
X76187Y422402D02*
X68962Y422402D01*
X68962Y438658D01*
X76187Y438658D01*
X74381Y431433D02*
X68962Y431433D01*
X82691Y438658D02*
X82691Y422402D01*
X82691Y428724D02*
X91722Y438658D01*
X86303Y432336D02*
X91722Y422402D01*
X97590Y426918D02*
X97590Y434142D01*
X97589Y434142D02*
X97591Y434275D01*
X97597Y434407D01*
X97607Y434539D01*
X97620Y434671D01*
X97638Y434803D01*
X97659Y434933D01*
X97684Y435064D01*
X97713Y435193D01*
X97746Y435321D01*
X97782Y435449D01*
X97822Y435575D01*
X97866Y435700D01*
X97914Y435824D01*
X97965Y435946D01*
X98020Y436067D01*
X98078Y436186D01*
X98140Y436304D01*
X98205Y436419D01*
X98274Y436533D01*
X98345Y436644D01*
X98421Y436753D01*
X98499Y436860D01*
X98580Y436965D01*
X98665Y437067D01*
X98752Y437167D01*
X98842Y437264D01*
X98935Y437359D01*
X99031Y437450D01*
X99129Y437539D01*
X99230Y437625D01*
X99334Y437708D01*
X99440Y437788D01*
X99548Y437864D01*
X99658Y437938D01*
X99771Y438008D01*
X99885Y438075D01*
X100002Y438138D01*
X100120Y438198D01*
X100240Y438255D01*
X100362Y438308D01*
X100485Y438357D01*
X100609Y438403D01*
X100735Y438445D01*
X100862Y438483D01*
X100990Y438518D01*
X101119Y438549D01*
X101248Y438576D01*
X101379Y438599D01*
X101510Y438619D01*
X101642Y438634D01*
X101774Y438646D01*
X101906Y438654D01*
X102039Y438658D01*
X102171Y438658D01*
X102304Y438654D01*
X102436Y438646D01*
X102568Y438634D01*
X102700Y438619D01*
X102831Y438599D01*
X102962Y438576D01*
X103091Y438549D01*
X103220Y438518D01*
X103348Y438483D01*
X103475Y438445D01*
X103601Y438403D01*
X103725Y438357D01*
X103848Y438308D01*
X103970Y438255D01*
X104090Y438198D01*
X104208Y438138D01*
X104325Y438075D01*
X104439Y438008D01*
X104552Y437938D01*
X104662Y437864D01*
X104770Y437788D01*
X104876Y437708D01*
X104980Y437625D01*
X105081Y437539D01*
X105179Y437450D01*
X105275Y437359D01*
X105368Y437264D01*
X105458Y437167D01*
X105545Y437067D01*
X105630Y436965D01*
X105711Y436860D01*
X105789Y436753D01*
X105865Y436644D01*
X105936Y436533D01*
X106005Y436419D01*
X106070Y436304D01*
X106132Y436186D01*
X106190Y436067D01*
X106245Y435946D01*
X106296Y435824D01*
X106344Y435700D01*
X106388Y435575D01*
X106428Y435449D01*
X106464Y435321D01*
X106497Y435193D01*
X106526Y435064D01*
X106551Y434933D01*
X106572Y434803D01*
X106590Y434671D01*
X106603Y434539D01*
X106613Y434407D01*
X106619Y434275D01*
X106621Y434142D01*
X106621Y426918D01*
X106619Y426785D01*
X106613Y426653D01*
X106603Y426521D01*
X106590Y426389D01*
X106572Y426257D01*
X106551Y426127D01*
X106526Y425996D01*
X106497Y425867D01*
X106464Y425739D01*
X106428Y425611D01*
X106388Y425485D01*
X106344Y425360D01*
X106296Y425236D01*
X106245Y425114D01*
X106190Y424993D01*
X106132Y424874D01*
X106070Y424756D01*
X106005Y424641D01*
X105936Y424527D01*
X105865Y424416D01*
X105789Y424307D01*
X105711Y424200D01*
X105630Y424095D01*
X105545Y423993D01*
X105458Y423893D01*
X105368Y423796D01*
X105275Y423701D01*
X105179Y423610D01*
X105081Y423521D01*
X104980Y423435D01*
X104876Y423352D01*
X104770Y423272D01*
X104662Y423196D01*
X104552Y423122D01*
X104439Y423052D01*
X104325Y422985D01*
X104208Y422922D01*
X104090Y422862D01*
X103970Y422805D01*
X103848Y422752D01*
X103725Y422703D01*
X103601Y422657D01*
X103475Y422615D01*
X103348Y422577D01*
X103220Y422542D01*
X103091Y422511D01*
X102962Y422484D01*
X102831Y422461D01*
X102700Y422441D01*
X102568Y422426D01*
X102436Y422414D01*
X102304Y422406D01*
X102171Y422402D01*
X102039Y422402D01*
X101906Y422406D01*
X101774Y422414D01*
X101642Y422426D01*
X101510Y422441D01*
X101379Y422461D01*
X101248Y422484D01*
X101119Y422511D01*
X100990Y422542D01*
X100862Y422577D01*
X100735Y422615D01*
X100609Y422657D01*
X100485Y422703D01*
X100362Y422752D01*
X100240Y422805D01*
X100120Y422862D01*
X100002Y422922D01*
X99885Y422985D01*
X99771Y423052D01*
X99658Y423122D01*
X99548Y423196D01*
X99440Y423272D01*
X99334Y423352D01*
X99230Y423435D01*
X99129Y423521D01*
X99031Y423610D01*
X98935Y423701D01*
X98842Y423796D01*
X98752Y423893D01*
X98665Y423993D01*
X98580Y424095D01*
X98499Y424200D01*
X98421Y424307D01*
X98345Y424416D01*
X98274Y424527D01*
X98205Y424641D01*
X98140Y424756D01*
X98078Y424874D01*
X98020Y424993D01*
X97965Y425114D01*
X97914Y425236D01*
X97866Y425360D01*
X97822Y425485D01*
X97782Y425611D01*
X97746Y425739D01*
X97713Y425867D01*
X97684Y425996D01*
X97659Y426127D01*
X97638Y426257D01*
X97620Y426389D01*
X97607Y426521D01*
X97597Y426653D01*
X97591Y426785D01*
X97589Y426918D01*
X113881Y422402D02*
X113881Y438658D01*
X119300Y429627D01*
X124718Y438658D01*
X124718Y422402D01*
X133368Y422402D02*
X133368Y438658D01*
X131562Y422402D02*
X135174Y422402D01*
X135174Y438658D02*
X131562Y438658D01*
X148200Y431433D02*
X150909Y431433D01*
X150909Y422402D01*
X145491Y422402D01*
X145373Y422404D01*
X145255Y422410D01*
X145137Y422419D01*
X145020Y422433D01*
X144903Y422450D01*
X144786Y422471D01*
X144671Y422496D01*
X144556Y422525D01*
X144442Y422558D01*
X144330Y422594D01*
X144219Y422634D01*
X144109Y422677D01*
X144000Y422724D01*
X143893Y422774D01*
X143788Y422829D01*
X143685Y422886D01*
X143584Y422947D01*
X143484Y423011D01*
X143387Y423078D01*
X143292Y423148D01*
X143200Y423222D01*
X143109Y423298D01*
X143022Y423378D01*
X142937Y423460D01*
X142855Y423545D01*
X142775Y423632D01*
X142699Y423723D01*
X142625Y423815D01*
X142555Y423910D01*
X142488Y424007D01*
X142424Y424107D01*
X142363Y424208D01*
X142306Y424311D01*
X142251Y424416D01*
X142201Y424523D01*
X142154Y424632D01*
X142111Y424742D01*
X142071Y424853D01*
X142035Y424965D01*
X142002Y425079D01*
X141973Y425194D01*
X141948Y425309D01*
X141927Y425426D01*
X141910Y425543D01*
X141896Y425660D01*
X141887Y425778D01*
X141881Y425896D01*
X141879Y426014D01*
X141878Y426014D02*
X141878Y435046D01*
X141879Y435046D02*
X141881Y435164D01*
X141887Y435282D01*
X141896Y435400D01*
X141910Y435517D01*
X141927Y435634D01*
X141948Y435751D01*
X141973Y435866D01*
X142002Y435981D01*
X142035Y436095D01*
X142071Y436207D01*
X142111Y436318D01*
X142154Y436428D01*
X142201Y436537D01*
X142251Y436644D01*
X142305Y436749D01*
X142363Y436852D01*
X142424Y436953D01*
X142488Y437053D01*
X142555Y437150D01*
X142625Y437245D01*
X142699Y437337D01*
X142775Y437428D01*
X142855Y437515D01*
X142937Y437600D01*
X143022Y437682D01*
X143109Y437762D01*
X143200Y437838D01*
X143292Y437912D01*
X143387Y437982D01*
X143484Y438049D01*
X143584Y438113D01*
X143685Y438174D01*
X143788Y438231D01*
X143893Y438285D01*
X144000Y438336D01*
X144109Y438383D01*
X144219Y438426D01*
X144330Y438466D01*
X144442Y438502D01*
X144556Y438535D01*
X144671Y438564D01*
X144786Y438589D01*
X144903Y438610D01*
X145020Y438627D01*
X145137Y438641D01*
X145255Y438650D01*
X145373Y438656D01*
X145491Y438658D01*
X150909Y438658D01*
X162546Y438658D02*
X157127Y422402D01*
X167965Y422402D02*
X162546Y438658D01*
X166610Y426466D02*
X158482Y426466D01*
X177235Y422402D02*
X180847Y422402D01*
X177235Y422402D02*
X177117Y422404D01*
X176999Y422410D01*
X176881Y422419D01*
X176764Y422433D01*
X176647Y422450D01*
X176530Y422471D01*
X176415Y422496D01*
X176300Y422525D01*
X176186Y422558D01*
X176074Y422594D01*
X175963Y422634D01*
X175853Y422677D01*
X175744Y422724D01*
X175637Y422774D01*
X175532Y422829D01*
X175429Y422886D01*
X175328Y422947D01*
X175228Y423011D01*
X175131Y423078D01*
X175036Y423148D01*
X174944Y423222D01*
X174853Y423298D01*
X174766Y423378D01*
X174681Y423460D01*
X174599Y423545D01*
X174519Y423632D01*
X174443Y423723D01*
X174369Y423815D01*
X174299Y423910D01*
X174232Y424007D01*
X174168Y424107D01*
X174107Y424208D01*
X174050Y424311D01*
X173995Y424416D01*
X173945Y424523D01*
X173898Y424632D01*
X173855Y424742D01*
X173815Y424853D01*
X173779Y424965D01*
X173746Y425079D01*
X173717Y425194D01*
X173692Y425309D01*
X173671Y425426D01*
X173654Y425543D01*
X173640Y425660D01*
X173631Y425778D01*
X173625Y425896D01*
X173623Y426014D01*
X173622Y426014D02*
X173622Y435046D01*
X173623Y435046D02*
X173625Y435164D01*
X173631Y435282D01*
X173640Y435400D01*
X173654Y435517D01*
X173671Y435634D01*
X173692Y435751D01*
X173717Y435866D01*
X173746Y435981D01*
X173779Y436095D01*
X173815Y436207D01*
X173855Y436318D01*
X173898Y436428D01*
X173945Y436537D01*
X173995Y436644D01*
X174049Y436749D01*
X174107Y436852D01*
X174168Y436953D01*
X174232Y437053D01*
X174299Y437150D01*
X174369Y437245D01*
X174443Y437337D01*
X174519Y437428D01*
X174599Y437515D01*
X174681Y437600D01*
X174766Y437682D01*
X174853Y437762D01*
X174944Y437838D01*
X175036Y437912D01*
X175131Y437982D01*
X175228Y438049D01*
X175328Y438113D01*
X175429Y438174D01*
X175532Y438231D01*
X175637Y438285D01*
X175744Y438336D01*
X175853Y438383D01*
X175963Y438426D01*
X176074Y438466D01*
X176186Y438502D01*
X176300Y438535D01*
X176415Y438564D01*
X176530Y438589D01*
X176647Y438610D01*
X176764Y438627D01*
X176881Y438641D01*
X176999Y438650D01*
X177117Y438656D01*
X177235Y438658D01*
X180847Y438658D01*
X186167Y438658D02*
X195198Y438658D01*
X186167Y422402D01*
X195198Y422402D01*
X35915Y415798D02*
X35915Y399542D01*
X35915Y415798D02*
X40430Y415798D01*
X40563Y415796D01*
X40695Y415790D01*
X40827Y415780D01*
X40959Y415767D01*
X41091Y415749D01*
X41221Y415728D01*
X41352Y415703D01*
X41481Y415674D01*
X41609Y415641D01*
X41737Y415605D01*
X41863Y415565D01*
X41988Y415521D01*
X42112Y415473D01*
X42234Y415422D01*
X42355Y415367D01*
X42474Y415309D01*
X42592Y415247D01*
X42707Y415182D01*
X42821Y415113D01*
X42932Y415042D01*
X43041Y414966D01*
X43148Y414888D01*
X43253Y414807D01*
X43355Y414722D01*
X43455Y414635D01*
X43552Y414545D01*
X43647Y414452D01*
X43738Y414356D01*
X43827Y414258D01*
X43913Y414157D01*
X43996Y414053D01*
X44076Y413947D01*
X44152Y413839D01*
X44226Y413729D01*
X44296Y413616D01*
X44363Y413502D01*
X44426Y413385D01*
X44486Y413267D01*
X44543Y413147D01*
X44596Y413025D01*
X44645Y412902D01*
X44691Y412778D01*
X44733Y412652D01*
X44771Y412525D01*
X44806Y412397D01*
X44837Y412268D01*
X44864Y412139D01*
X44887Y412008D01*
X44907Y411877D01*
X44922Y411745D01*
X44934Y411613D01*
X44942Y411481D01*
X44946Y411348D01*
X44946Y411216D01*
X44942Y411083D01*
X44934Y410951D01*
X44922Y410819D01*
X44907Y410687D01*
X44887Y410556D01*
X44864Y410425D01*
X44837Y410296D01*
X44806Y410167D01*
X44771Y410039D01*
X44733Y409912D01*
X44691Y409786D01*
X44645Y409662D01*
X44596Y409539D01*
X44543Y409417D01*
X44486Y409297D01*
X44426Y409179D01*
X44363Y409062D01*
X44296Y408948D01*
X44226Y408835D01*
X44152Y408725D01*
X44076Y408617D01*
X43996Y408511D01*
X43913Y408407D01*
X43827Y408306D01*
X43738Y408208D01*
X43647Y408112D01*
X43552Y408019D01*
X43455Y407929D01*
X43355Y407842D01*
X43253Y407757D01*
X43148Y407676D01*
X43041Y407598D01*
X42932Y407522D01*
X42821Y407451D01*
X42707Y407382D01*
X42592Y407317D01*
X42474Y407255D01*
X42355Y407197D01*
X42234Y407142D01*
X42112Y407091D01*
X41988Y407043D01*
X41863Y406999D01*
X41737Y406959D01*
X41609Y406923D01*
X41481Y406890D01*
X41352Y406861D01*
X41221Y406836D01*
X41091Y406815D01*
X40959Y406797D01*
X40827Y406784D01*
X40695Y406774D01*
X40563Y406768D01*
X40430Y406766D01*
X40430Y406767D02*
X35915Y406767D01*
X53762Y405864D02*
X57826Y405864D01*
X53762Y405864D02*
X53650Y405862D01*
X53539Y405856D01*
X53428Y405846D01*
X53317Y405833D01*
X53207Y405815D01*
X53098Y405793D01*
X52989Y405768D01*
X52881Y405739D01*
X52775Y405706D01*
X52669Y405669D01*
X52565Y405629D01*
X52463Y405585D01*
X52362Y405537D01*
X52263Y405486D01*
X52165Y405431D01*
X52070Y405373D01*
X51977Y405312D01*
X51886Y405247D01*
X51797Y405179D01*
X51711Y405108D01*
X51628Y405035D01*
X51547Y404958D01*
X51468Y404878D01*
X51393Y404796D01*
X51321Y404711D01*
X51251Y404624D01*
X51185Y404534D01*
X51122Y404442D01*
X51062Y404347D01*
X51006Y404251D01*
X50953Y404153D01*
X50904Y404053D01*
X50858Y403951D01*
X50816Y403848D01*
X50777Y403743D01*
X50742Y403637D01*
X50711Y403530D01*
X50684Y403422D01*
X50660Y403313D01*
X50641Y403203D01*
X50625Y403093D01*
X50613Y402982D01*
X50605Y402870D01*
X50601Y402759D01*
X50601Y402647D01*
X50605Y402536D01*
X50613Y402424D01*
X50625Y402313D01*
X50641Y402203D01*
X50660Y402093D01*
X50684Y401984D01*
X50711Y401876D01*
X50742Y401769D01*
X50777Y401663D01*
X50816Y401558D01*
X50858Y401455D01*
X50904Y401353D01*
X50953Y401253D01*
X51006Y401155D01*
X51062Y401059D01*
X51122Y400964D01*
X51185Y400872D01*
X51251Y400782D01*
X51321Y400695D01*
X51393Y400610D01*
X51468Y400528D01*
X51547Y400448D01*
X51628Y400371D01*
X51711Y400298D01*
X51797Y400227D01*
X51886Y400159D01*
X51977Y400094D01*
X52070Y400033D01*
X52165Y399975D01*
X52263Y399920D01*
X52362Y399869D01*
X52463Y399821D01*
X52565Y399777D01*
X52669Y399737D01*
X52775Y399700D01*
X52881Y399667D01*
X52989Y399638D01*
X53098Y399613D01*
X53207Y399591D01*
X53317Y399573D01*
X53428Y399560D01*
X53539Y399550D01*
X53650Y399544D01*
X53762Y399542D01*
X57826Y399542D01*
X57826Y407670D01*
X57824Y407771D01*
X57818Y407872D01*
X57809Y407973D01*
X57796Y408074D01*
X57779Y408174D01*
X57758Y408273D01*
X57734Y408371D01*
X57706Y408468D01*
X57674Y408565D01*
X57639Y408660D01*
X57600Y408753D01*
X57558Y408845D01*
X57512Y408936D01*
X57463Y409025D01*
X57411Y409111D01*
X57355Y409196D01*
X57297Y409279D01*
X57235Y409359D01*
X57170Y409437D01*
X57103Y409513D01*
X57033Y409586D01*
X56960Y409656D01*
X56884Y409723D01*
X56806Y409788D01*
X56726Y409850D01*
X56643Y409908D01*
X56558Y409964D01*
X56472Y410016D01*
X56383Y410065D01*
X56292Y410111D01*
X56200Y410153D01*
X56107Y410192D01*
X56012Y410227D01*
X55915Y410259D01*
X55818Y410287D01*
X55720Y410311D01*
X55621Y410332D01*
X55521Y410349D01*
X55420Y410362D01*
X55319Y410371D01*
X55218Y410377D01*
X55117Y410379D01*
X51505Y410379D01*
X64500Y410379D02*
X67209Y399542D01*
X69919Y406767D01*
X72628Y399542D01*
X75337Y410379D01*
X84126Y399542D02*
X88641Y399542D01*
X84126Y399542D02*
X84025Y399544D01*
X83924Y399550D01*
X83823Y399559D01*
X83722Y399572D01*
X83622Y399589D01*
X83523Y399610D01*
X83425Y399634D01*
X83328Y399662D01*
X83231Y399694D01*
X83136Y399729D01*
X83043Y399768D01*
X82951Y399810D01*
X82860Y399856D01*
X82772Y399905D01*
X82685Y399957D01*
X82600Y400013D01*
X82517Y400071D01*
X82437Y400133D01*
X82359Y400198D01*
X82283Y400265D01*
X82210Y400335D01*
X82140Y400408D01*
X82073Y400484D01*
X82008Y400562D01*
X81946Y400642D01*
X81888Y400725D01*
X81832Y400810D01*
X81780Y400897D01*
X81731Y400985D01*
X81685Y401076D01*
X81643Y401168D01*
X81604Y401261D01*
X81569Y401356D01*
X81537Y401453D01*
X81509Y401550D01*
X81485Y401648D01*
X81464Y401747D01*
X81447Y401847D01*
X81434Y401948D01*
X81425Y402049D01*
X81419Y402150D01*
X81417Y402251D01*
X81416Y402251D02*
X81416Y406767D01*
X81417Y406767D02*
X81419Y406886D01*
X81425Y407006D01*
X81435Y407125D01*
X81449Y407243D01*
X81466Y407362D01*
X81488Y407479D01*
X81513Y407596D01*
X81543Y407711D01*
X81576Y407826D01*
X81613Y407940D01*
X81653Y408052D01*
X81698Y408163D01*
X81746Y408272D01*
X81797Y408380D01*
X81852Y408486D01*
X81911Y408590D01*
X81973Y408692D01*
X82038Y408792D01*
X82107Y408890D01*
X82179Y408986D01*
X82254Y409079D01*
X82331Y409169D01*
X82412Y409257D01*
X82496Y409342D01*
X82583Y409424D01*
X82672Y409504D01*
X82764Y409580D01*
X82858Y409654D01*
X82955Y409724D01*
X83053Y409791D01*
X83154Y409855D01*
X83258Y409915D01*
X83363Y409972D01*
X83470Y410025D01*
X83578Y410075D01*
X83688Y410121D01*
X83800Y410163D01*
X83913Y410202D01*
X84027Y410237D01*
X84142Y410268D01*
X84259Y410296D01*
X84376Y410319D01*
X84493Y410339D01*
X84612Y410355D01*
X84731Y410367D01*
X84850Y410375D01*
X84969Y410379D01*
X85089Y410379D01*
X85208Y410375D01*
X85327Y410367D01*
X85446Y410355D01*
X85565Y410339D01*
X85682Y410319D01*
X85799Y410296D01*
X85916Y410268D01*
X86031Y410237D01*
X86145Y410202D01*
X86258Y410163D01*
X86370Y410121D01*
X86480Y410075D01*
X86588Y410025D01*
X86695Y409972D01*
X86800Y409915D01*
X86904Y409855D01*
X87005Y409791D01*
X87103Y409724D01*
X87200Y409654D01*
X87294Y409580D01*
X87386Y409504D01*
X87475Y409424D01*
X87562Y409342D01*
X87646Y409257D01*
X87727Y409169D01*
X87804Y409079D01*
X87879Y408986D01*
X87951Y408890D01*
X88020Y408792D01*
X88085Y408692D01*
X88147Y408590D01*
X88206Y408486D01*
X88261Y408380D01*
X88312Y408272D01*
X88360Y408163D01*
X88405Y408052D01*
X88445Y407940D01*
X88482Y407826D01*
X88515Y407711D01*
X88545Y407596D01*
X88570Y407479D01*
X88592Y407362D01*
X88609Y407243D01*
X88623Y407125D01*
X88633Y407006D01*
X88639Y406886D01*
X88641Y406767D01*
X88641Y404961D01*
X81416Y404961D01*
X93261Y405864D02*
X98680Y409476D01*
X95971Y415798D02*
X95971Y402251D01*
X95973Y402150D01*
X95979Y402049D01*
X95988Y401948D01*
X96001Y401847D01*
X96018Y401747D01*
X96039Y401648D01*
X96063Y401550D01*
X96091Y401453D01*
X96123Y401356D01*
X96158Y401261D01*
X96197Y401168D01*
X96239Y401076D01*
X96285Y400985D01*
X96334Y400896D01*
X96386Y400810D01*
X96442Y400725D01*
X96500Y400642D01*
X96562Y400562D01*
X96627Y400484D01*
X96694Y400408D01*
X96764Y400335D01*
X96837Y400265D01*
X96913Y400198D01*
X96991Y400133D01*
X97071Y400071D01*
X97154Y400013D01*
X97239Y399957D01*
X97326Y399905D01*
X97414Y399856D01*
X97505Y399810D01*
X97597Y399768D01*
X97690Y399729D01*
X97785Y399694D01*
X97882Y399662D01*
X97979Y399634D01*
X98077Y399610D01*
X98176Y399589D01*
X98276Y399572D01*
X98377Y399559D01*
X98478Y399550D01*
X98579Y399544D01*
X98680Y399542D01*
X114763Y399542D02*
X111150Y415798D01*
X118375Y410379D02*
X114763Y399542D01*
X121988Y399542D02*
X118375Y410379D01*
X125600Y415798D02*
X121988Y399542D01*
X131401Y399542D02*
X131401Y410379D01*
X130950Y414895D02*
X130950Y415798D01*
X131853Y415798D01*
X131853Y414895D01*
X130950Y414895D01*
X137926Y415798D02*
X137926Y402251D01*
X137928Y402150D01*
X137934Y402049D01*
X137943Y401948D01*
X137956Y401847D01*
X137973Y401747D01*
X137994Y401648D01*
X138018Y401550D01*
X138046Y401453D01*
X138078Y401356D01*
X138113Y401261D01*
X138152Y401168D01*
X138194Y401076D01*
X138240Y400985D01*
X138289Y400897D01*
X138341Y400810D01*
X138397Y400725D01*
X138455Y400642D01*
X138517Y400562D01*
X138582Y400484D01*
X138649Y400408D01*
X138719Y400335D01*
X138792Y400265D01*
X138868Y400198D01*
X138946Y400133D01*
X139026Y400071D01*
X139109Y400013D01*
X139194Y399957D01*
X139281Y399905D01*
X139369Y399856D01*
X139460Y399810D01*
X139552Y399768D01*
X139645Y399729D01*
X139740Y399694D01*
X139837Y399662D01*
X139934Y399634D01*
X140032Y399610D01*
X140131Y399589D01*
X140231Y399572D01*
X140332Y399559D01*
X140433Y399550D01*
X140534Y399544D01*
X140635Y399542D01*
X148752Y399542D02*
X152365Y399542D01*
X148752Y399542D02*
X148651Y399544D01*
X148550Y399550D01*
X148449Y399559D01*
X148348Y399572D01*
X148248Y399589D01*
X148149Y399610D01*
X148051Y399634D01*
X147954Y399662D01*
X147857Y399694D01*
X147762Y399729D01*
X147669Y399768D01*
X147577Y399810D01*
X147486Y399856D01*
X147398Y399905D01*
X147311Y399957D01*
X147226Y400013D01*
X147143Y400071D01*
X147063Y400133D01*
X146985Y400198D01*
X146909Y400265D01*
X146836Y400335D01*
X146766Y400408D01*
X146699Y400484D01*
X146634Y400562D01*
X146572Y400642D01*
X146514Y400725D01*
X146458Y400810D01*
X146406Y400897D01*
X146357Y400985D01*
X146311Y401076D01*
X146269Y401168D01*
X146230Y401261D01*
X146195Y401356D01*
X146163Y401453D01*
X146135Y401550D01*
X146111Y401648D01*
X146090Y401747D01*
X146073Y401847D01*
X146060Y401948D01*
X146051Y402049D01*
X146045Y402150D01*
X146043Y402251D01*
X146043Y407670D01*
X146045Y407771D01*
X146051Y407872D01*
X146060Y407973D01*
X146073Y408074D01*
X146090Y408174D01*
X146111Y408273D01*
X146135Y408371D01*
X146163Y408468D01*
X146195Y408565D01*
X146230Y408660D01*
X146269Y408753D01*
X146311Y408845D01*
X146357Y408936D01*
X146406Y409025D01*
X146458Y409111D01*
X146514Y409196D01*
X146572Y409279D01*
X146634Y409359D01*
X146699Y409437D01*
X146766Y409513D01*
X146836Y409586D01*
X146909Y409656D01*
X146985Y409723D01*
X147063Y409788D01*
X147143Y409850D01*
X147226Y409908D01*
X147311Y409964D01*
X147398Y410016D01*
X147486Y410065D01*
X147577Y410111D01*
X147669Y410153D01*
X147762Y410192D01*
X147857Y410227D01*
X147954Y410259D01*
X148051Y410287D01*
X148149Y410311D01*
X148248Y410332D01*
X148348Y410349D01*
X148449Y410362D01*
X148550Y410371D01*
X148651Y410377D01*
X148752Y410379D01*
X152365Y410379D01*
X157488Y410379D02*
X164713Y410379D01*
X157488Y399542D01*
X164713Y399542D01*
X173224Y399542D02*
X177739Y399542D01*
X173224Y399542D02*
X173123Y399544D01*
X173022Y399550D01*
X172921Y399559D01*
X172820Y399572D01*
X172720Y399589D01*
X172621Y399610D01*
X172523Y399634D01*
X172426Y399662D01*
X172329Y399694D01*
X172234Y399729D01*
X172141Y399768D01*
X172049Y399810D01*
X171958Y399856D01*
X171870Y399905D01*
X171783Y399957D01*
X171698Y400013D01*
X171615Y400071D01*
X171535Y400133D01*
X171457Y400198D01*
X171381Y400265D01*
X171308Y400335D01*
X171238Y400408D01*
X171171Y400484D01*
X171106Y400562D01*
X171044Y400642D01*
X170986Y400725D01*
X170930Y400810D01*
X170878Y400897D01*
X170829Y400985D01*
X170783Y401076D01*
X170741Y401168D01*
X170702Y401261D01*
X170667Y401356D01*
X170635Y401453D01*
X170607Y401550D01*
X170583Y401648D01*
X170562Y401747D01*
X170545Y401847D01*
X170532Y401948D01*
X170523Y402049D01*
X170517Y402150D01*
X170515Y402251D01*
X170514Y402251D02*
X170514Y406767D01*
X170515Y406767D02*
X170517Y406886D01*
X170523Y407006D01*
X170533Y407125D01*
X170547Y407243D01*
X170564Y407362D01*
X170586Y407479D01*
X170611Y407596D01*
X170641Y407711D01*
X170674Y407826D01*
X170711Y407940D01*
X170751Y408052D01*
X170796Y408163D01*
X170844Y408272D01*
X170895Y408380D01*
X170950Y408486D01*
X171009Y408590D01*
X171071Y408692D01*
X171136Y408792D01*
X171205Y408890D01*
X171277Y408986D01*
X171352Y409079D01*
X171429Y409169D01*
X171510Y409257D01*
X171594Y409342D01*
X171681Y409424D01*
X171770Y409504D01*
X171862Y409580D01*
X171956Y409654D01*
X172053Y409724D01*
X172151Y409791D01*
X172252Y409855D01*
X172356Y409915D01*
X172461Y409972D01*
X172568Y410025D01*
X172676Y410075D01*
X172786Y410121D01*
X172898Y410163D01*
X173011Y410202D01*
X173125Y410237D01*
X173240Y410268D01*
X173357Y410296D01*
X173474Y410319D01*
X173591Y410339D01*
X173710Y410355D01*
X173829Y410367D01*
X173948Y410375D01*
X174067Y410379D01*
X174187Y410379D01*
X174306Y410375D01*
X174425Y410367D01*
X174544Y410355D01*
X174663Y410339D01*
X174780Y410319D01*
X174897Y410296D01*
X175014Y410268D01*
X175129Y410237D01*
X175243Y410202D01*
X175356Y410163D01*
X175468Y410121D01*
X175578Y410075D01*
X175686Y410025D01*
X175793Y409972D01*
X175898Y409915D01*
X176002Y409855D01*
X176103Y409791D01*
X176201Y409724D01*
X176298Y409654D01*
X176392Y409580D01*
X176484Y409504D01*
X176573Y409424D01*
X176660Y409342D01*
X176744Y409257D01*
X176825Y409169D01*
X176902Y409079D01*
X176977Y408986D01*
X177049Y408890D01*
X177118Y408792D01*
X177183Y408692D01*
X177245Y408590D01*
X177304Y408486D01*
X177359Y408380D01*
X177410Y408272D01*
X177458Y408163D01*
X177503Y408052D01*
X177543Y407940D01*
X177580Y407826D01*
X177613Y407711D01*
X177643Y407596D01*
X177668Y407479D01*
X177690Y407362D01*
X177707Y407243D01*
X177721Y407125D01*
X177731Y407006D01*
X177737Y406886D01*
X177739Y406767D01*
X177739Y404961D01*
X170514Y404961D01*
X183818Y410379D02*
X186528Y399542D01*
X189237Y406767D01*
X191946Y399542D01*
X194656Y410379D01*
X202089Y405864D02*
X206605Y404058D01*
X202089Y405864D02*
X202001Y405901D01*
X201915Y405942D01*
X201830Y405986D01*
X201747Y406034D01*
X201667Y406085D01*
X201588Y406139D01*
X201512Y406197D01*
X201438Y406257D01*
X201366Y406321D01*
X201298Y406387D01*
X201232Y406457D01*
X201169Y406528D01*
X201108Y406603D01*
X201051Y406679D01*
X200998Y406758D01*
X200947Y406839D01*
X200900Y406922D01*
X200856Y407007D01*
X200816Y407094D01*
X200779Y407182D01*
X200746Y407272D01*
X200716Y407363D01*
X200691Y407455D01*
X200669Y407548D01*
X200651Y407642D01*
X200636Y407736D01*
X200626Y407831D01*
X200620Y407927D01*
X200617Y408022D01*
X200618Y408118D01*
X200624Y408213D01*
X200633Y408309D01*
X200646Y408403D01*
X200662Y408497D01*
X200683Y408591D01*
X200708Y408683D01*
X200736Y408774D01*
X200768Y408864D01*
X200803Y408953D01*
X200842Y409040D01*
X200885Y409126D01*
X200931Y409210D01*
X200981Y409291D01*
X201033Y409371D01*
X201089Y409449D01*
X201149Y409524D01*
X201211Y409596D01*
X201276Y409666D01*
X201344Y409734D01*
X201414Y409798D01*
X201487Y409860D01*
X201563Y409918D01*
X201641Y409974D01*
X201721Y410026D01*
X201803Y410075D01*
X201887Y410120D01*
X201973Y410162D01*
X202060Y410201D01*
X202149Y410236D01*
X202240Y410267D01*
X202331Y410294D01*
X202424Y410318D01*
X202517Y410338D01*
X202611Y410354D01*
X202706Y410366D01*
X202801Y410375D01*
X202897Y410379D01*
X202992Y410380D01*
X203239Y410373D01*
X203485Y410361D01*
X203731Y410343D01*
X203977Y410318D01*
X204221Y410288D01*
X204465Y410252D01*
X204708Y410211D01*
X204950Y410163D01*
X205191Y410109D01*
X205430Y410050D01*
X205668Y409985D01*
X205904Y409914D01*
X206139Y409838D01*
X206372Y409756D01*
X206602Y409668D01*
X206830Y409575D01*
X207057Y409477D01*
X206605Y404057D02*
X206693Y404020D01*
X206779Y403979D01*
X206864Y403935D01*
X206947Y403887D01*
X207027Y403836D01*
X207106Y403782D01*
X207182Y403724D01*
X207256Y403664D01*
X207328Y403600D01*
X207396Y403534D01*
X207462Y403464D01*
X207525Y403393D01*
X207586Y403318D01*
X207643Y403242D01*
X207696Y403163D01*
X207747Y403082D01*
X207794Y402999D01*
X207838Y402914D01*
X207878Y402827D01*
X207915Y402739D01*
X207948Y402649D01*
X207978Y402558D01*
X208003Y402466D01*
X208025Y402373D01*
X208043Y402279D01*
X208058Y402185D01*
X208068Y402090D01*
X208074Y401994D01*
X208077Y401899D01*
X208076Y401803D01*
X208070Y401708D01*
X208061Y401612D01*
X208048Y401518D01*
X208032Y401424D01*
X208011Y401330D01*
X207986Y401238D01*
X207958Y401147D01*
X207926Y401057D01*
X207891Y400968D01*
X207852Y400881D01*
X207809Y400795D01*
X207763Y400711D01*
X207713Y400630D01*
X207661Y400550D01*
X207605Y400472D01*
X207545Y400397D01*
X207483Y400325D01*
X207418Y400255D01*
X207350Y400187D01*
X207280Y400123D01*
X207207Y400061D01*
X207131Y400003D01*
X207053Y399947D01*
X206973Y399895D01*
X206891Y399846D01*
X206807Y399801D01*
X206721Y399759D01*
X206634Y399720D01*
X206545Y399685D01*
X206454Y399654D01*
X206363Y399627D01*
X206270Y399603D01*
X206177Y399583D01*
X206083Y399567D01*
X205988Y399555D01*
X205893Y399546D01*
X205797Y399542D01*
X205702Y399541D01*
X205701Y399542D02*
X205339Y399551D01*
X204977Y399569D01*
X204616Y399596D01*
X204256Y399631D01*
X203896Y399674D01*
X203537Y399726D01*
X203180Y399787D01*
X202825Y399856D01*
X202471Y399933D01*
X202119Y400019D01*
X201769Y400113D01*
X201421Y400216D01*
X201076Y400326D01*
X200734Y400445D01*
X214971Y399542D02*
X214971Y415798D01*
X222196Y410379D02*
X214971Y404961D01*
X218132Y407218D02*
X222196Y399542D01*
X227794Y399542D02*
X227794Y410379D01*
X227342Y414895D02*
X227342Y415798D01*
X228245Y415798D01*
X228245Y414895D01*
X227342Y414895D01*
X40640Y342900D02*
X38100Y345440D01*
X40640Y342900D02*
X38100Y340360D01*
X60960Y342900D02*
X63500Y345440D01*
X60960Y342900D02*
X63500Y340360D01*
X63500Y320040D01*
X60960Y317500D01*
X63500Y365760D02*
X60960Y368300D01*
X63500Y365760D02*
X63500Y345440D01*
X60960Y368300D02*
X40640Y368300D01*
X38100Y365760D01*
X38100Y345440D01*
X38100Y340360D02*
X38100Y320040D01*
X40640Y317500D01*
X60960Y317500D01*
D11*
X31115Y321945D02*
X22225Y321945D01*
X31115Y321945D02*
X31215Y321943D01*
X31314Y321937D01*
X31414Y321927D01*
X31512Y321914D01*
X31611Y321896D01*
X31708Y321875D01*
X31804Y321850D01*
X31900Y321821D01*
X31994Y321788D01*
X32087Y321752D01*
X32178Y321712D01*
X32268Y321668D01*
X32356Y321621D01*
X32442Y321571D01*
X32526Y321517D01*
X32608Y321460D01*
X32687Y321400D01*
X32765Y321336D01*
X32839Y321270D01*
X32911Y321201D01*
X32980Y321129D01*
X33046Y321055D01*
X33110Y320977D01*
X33170Y320898D01*
X33227Y320816D01*
X33281Y320732D01*
X33331Y320646D01*
X33378Y320558D01*
X33422Y320468D01*
X33462Y320377D01*
X33498Y320284D01*
X33531Y320190D01*
X33560Y320094D01*
X33585Y319998D01*
X33606Y319901D01*
X33624Y319802D01*
X33637Y319704D01*
X33647Y319604D01*
X33653Y319505D01*
X33655Y319405D01*
X33655Y318135D01*
X33655Y327925D02*
X22225Y327925D01*
X22225Y331100D01*
X22227Y331211D01*
X22233Y331321D01*
X22242Y331432D01*
X22256Y331542D01*
X22273Y331651D01*
X22294Y331760D01*
X22319Y331868D01*
X22348Y331975D01*
X22380Y332081D01*
X22416Y332186D01*
X22456Y332289D01*
X22499Y332391D01*
X22546Y332492D01*
X22597Y332591D01*
X22650Y332688D01*
X22707Y332782D01*
X22768Y332875D01*
X22831Y332966D01*
X22898Y333055D01*
X22968Y333141D01*
X23041Y333224D01*
X23116Y333306D01*
X23194Y333384D01*
X23276Y333459D01*
X23359Y333532D01*
X23445Y333602D01*
X23534Y333669D01*
X23625Y333732D01*
X23718Y333793D01*
X23812Y333850D01*
X23909Y333903D01*
X24008Y333954D01*
X24109Y334001D01*
X24211Y334044D01*
X24314Y334084D01*
X24419Y334120D01*
X24525Y334152D01*
X24632Y334181D01*
X24740Y334206D01*
X24849Y334227D01*
X24958Y334244D01*
X25068Y334258D01*
X25179Y334267D01*
X25289Y334273D01*
X25400Y334275D01*
X25511Y334273D01*
X25621Y334267D01*
X25732Y334258D01*
X25842Y334244D01*
X25951Y334227D01*
X26060Y334206D01*
X26168Y334181D01*
X26275Y334152D01*
X26381Y334120D01*
X26486Y334084D01*
X26589Y334044D01*
X26691Y334001D01*
X26792Y333954D01*
X26891Y333903D01*
X26988Y333850D01*
X27082Y333793D01*
X27175Y333732D01*
X27266Y333669D01*
X27355Y333602D01*
X27441Y333532D01*
X27524Y333459D01*
X27606Y333384D01*
X27684Y333306D01*
X27759Y333224D01*
X27832Y333141D01*
X27902Y333055D01*
X27969Y332966D01*
X28032Y332875D01*
X28093Y332782D01*
X28150Y332688D01*
X28203Y332591D01*
X28254Y332492D01*
X28301Y332391D01*
X28344Y332289D01*
X28384Y332186D01*
X28420Y332081D01*
X28452Y331975D01*
X28481Y331868D01*
X28506Y331760D01*
X28527Y331651D01*
X28544Y331542D01*
X28558Y331432D01*
X28567Y331321D01*
X28573Y331211D01*
X28575Y331100D01*
X28575Y327925D01*
X22225Y342276D02*
X22227Y342380D01*
X22233Y342485D01*
X22242Y342589D01*
X22255Y342692D01*
X22273Y342795D01*
X22293Y342897D01*
X22318Y342999D01*
X22346Y343099D01*
X22378Y343199D01*
X22414Y343297D01*
X22453Y343394D01*
X22495Y343489D01*
X22541Y343583D01*
X22591Y343675D01*
X22643Y343765D01*
X22699Y343853D01*
X22759Y343939D01*
X22821Y344023D01*
X22886Y344104D01*
X22954Y344183D01*
X23026Y344260D01*
X23099Y344333D01*
X23176Y344405D01*
X23255Y344473D01*
X23336Y344538D01*
X23420Y344600D01*
X23506Y344660D01*
X23594Y344716D01*
X23684Y344768D01*
X23776Y344818D01*
X23870Y344864D01*
X23965Y344906D01*
X24062Y344945D01*
X24160Y344981D01*
X24260Y345013D01*
X24360Y345041D01*
X24462Y345066D01*
X24564Y345086D01*
X24667Y345104D01*
X24770Y345117D01*
X24874Y345126D01*
X24979Y345132D01*
X25083Y345134D01*
X22225Y342276D02*
X22227Y342158D01*
X22233Y342039D01*
X22242Y341921D01*
X22255Y341804D01*
X22273Y341687D01*
X22293Y341570D01*
X22318Y341454D01*
X22346Y341339D01*
X22379Y341226D01*
X22414Y341113D01*
X22454Y341001D01*
X22496Y340891D01*
X22543Y340782D01*
X22593Y340674D01*
X22646Y340569D01*
X22703Y340465D01*
X22763Y340363D01*
X22826Y340263D01*
X22893Y340165D01*
X22962Y340069D01*
X23035Y339976D01*
X23111Y339885D01*
X23189Y339796D01*
X23271Y339710D01*
X23355Y339627D01*
X23441Y339546D01*
X23531Y339469D01*
X23622Y339394D01*
X23716Y339322D01*
X23813Y339253D01*
X23911Y339188D01*
X24012Y339125D01*
X24115Y339066D01*
X24219Y339010D01*
X24325Y338958D01*
X24433Y338909D01*
X24542Y338864D01*
X24653Y338822D01*
X24765Y338784D01*
X27305Y344182D02*
X27230Y344258D01*
X27151Y344333D01*
X27070Y344404D01*
X26986Y344473D01*
X26900Y344538D01*
X26812Y344600D01*
X26722Y344660D01*
X26630Y344716D01*
X26535Y344769D01*
X26439Y344818D01*
X26341Y344864D01*
X26242Y344907D01*
X26141Y344946D01*
X26039Y344981D01*
X25936Y345013D01*
X25832Y345041D01*
X25727Y345066D01*
X25620Y345087D01*
X25514Y345104D01*
X25407Y345117D01*
X25299Y345126D01*
X25191Y345132D01*
X25083Y345134D01*
X27305Y344181D02*
X33655Y338784D01*
X33655Y345134D01*
D10*
X38100Y142240D02*
X40640Y139700D01*
X38100Y137160D01*
X60960Y139700D02*
X63500Y142240D01*
X60960Y139700D02*
X63500Y137160D01*
X63500Y116840D01*
X60960Y114300D01*
X63500Y162560D02*
X60960Y165100D01*
X63500Y162560D02*
X63500Y142240D01*
X60960Y165100D02*
X40640Y165100D01*
X38100Y162560D01*
X38100Y142240D01*
X38100Y137160D02*
X38100Y116840D01*
X40640Y114300D01*
X60960Y114300D01*
D11*
X31115Y118745D02*
X22225Y118745D01*
X31115Y118745D02*
X31215Y118743D01*
X31314Y118737D01*
X31414Y118727D01*
X31512Y118714D01*
X31611Y118696D01*
X31708Y118675D01*
X31804Y118650D01*
X31900Y118621D01*
X31994Y118588D01*
X32087Y118552D01*
X32178Y118512D01*
X32268Y118468D01*
X32356Y118421D01*
X32442Y118371D01*
X32526Y118317D01*
X32608Y118260D01*
X32687Y118200D01*
X32765Y118136D01*
X32839Y118070D01*
X32911Y118001D01*
X32980Y117929D01*
X33046Y117855D01*
X33110Y117777D01*
X33170Y117698D01*
X33227Y117616D01*
X33281Y117532D01*
X33331Y117446D01*
X33378Y117358D01*
X33422Y117268D01*
X33462Y117177D01*
X33498Y117084D01*
X33531Y116990D01*
X33560Y116894D01*
X33585Y116798D01*
X33606Y116701D01*
X33624Y116602D01*
X33637Y116504D01*
X33647Y116404D01*
X33653Y116305D01*
X33655Y116205D01*
X33655Y114935D01*
X33655Y124725D02*
X22225Y124725D01*
X22225Y127900D01*
X22227Y128011D01*
X22233Y128121D01*
X22242Y128232D01*
X22256Y128342D01*
X22273Y128451D01*
X22294Y128560D01*
X22319Y128668D01*
X22348Y128775D01*
X22380Y128881D01*
X22416Y128986D01*
X22456Y129089D01*
X22499Y129191D01*
X22546Y129292D01*
X22597Y129391D01*
X22650Y129487D01*
X22707Y129582D01*
X22768Y129675D01*
X22831Y129766D01*
X22898Y129855D01*
X22968Y129941D01*
X23041Y130024D01*
X23116Y130106D01*
X23194Y130184D01*
X23276Y130259D01*
X23359Y130332D01*
X23445Y130402D01*
X23534Y130469D01*
X23625Y130532D01*
X23718Y130593D01*
X23812Y130650D01*
X23909Y130703D01*
X24008Y130754D01*
X24109Y130801D01*
X24211Y130844D01*
X24314Y130884D01*
X24419Y130920D01*
X24525Y130952D01*
X24632Y130981D01*
X24740Y131006D01*
X24849Y131027D01*
X24958Y131044D01*
X25068Y131058D01*
X25179Y131067D01*
X25289Y131073D01*
X25400Y131075D01*
X25511Y131073D01*
X25621Y131067D01*
X25732Y131058D01*
X25842Y131044D01*
X25951Y131027D01*
X26060Y131006D01*
X26168Y130981D01*
X26275Y130952D01*
X26381Y130920D01*
X26486Y130884D01*
X26589Y130844D01*
X26691Y130801D01*
X26792Y130754D01*
X26891Y130703D01*
X26988Y130650D01*
X27082Y130593D01*
X27175Y130532D01*
X27266Y130469D01*
X27355Y130402D01*
X27441Y130332D01*
X27524Y130259D01*
X27606Y130184D01*
X27684Y130106D01*
X27759Y130024D01*
X27832Y129941D01*
X27902Y129855D01*
X27969Y129766D01*
X28032Y129675D01*
X28093Y129582D01*
X28150Y129488D01*
X28203Y129391D01*
X28254Y129292D01*
X28301Y129191D01*
X28344Y129089D01*
X28384Y128986D01*
X28420Y128881D01*
X28452Y128775D01*
X28481Y128668D01*
X28506Y128560D01*
X28527Y128451D01*
X28544Y128342D01*
X28558Y128232D01*
X28567Y128121D01*
X28573Y128011D01*
X28575Y127900D01*
X28575Y124725D01*
X24765Y135584D02*
X22225Y138759D01*
X33655Y138759D01*
X33655Y135584D02*
X33655Y141934D01*
D12*
X152400Y336550D02*
X152400Y374650D01*
D13*
X151926Y375266D01*
X151437Y375871D01*
X150933Y376463D01*
X150415Y377043D01*
X149883Y377610D01*
X149337Y378164D01*
X148778Y378704D01*
X148205Y379230D01*
X147620Y379743D01*
X147023Y380240D01*
X146414Y380723D01*
X145793Y381191D01*
X145160Y381644D01*
X144517Y382081D01*
X143863Y382502D01*
X143199Y382906D01*
X142526Y383295D01*
X141843Y383667D01*
X141151Y384022D01*
X140451Y384360D01*
X139743Y384681D01*
X139027Y384984D01*
X138303Y385270D01*
X137574Y385538D01*
X136837Y385788D01*
X136095Y386019D01*
X135347Y386233D01*
X134595Y386428D01*
X133837Y386605D01*
X133076Y386763D01*
X132311Y386903D01*
X131543Y387023D01*
X130772Y387125D01*
X129999Y387208D01*
X129224Y387272D01*
X128448Y387317D01*
X127671Y387343D01*
X126893Y387350D01*
X126116Y387338D01*
X125339Y387307D01*
X124563Y387256D01*
X123788Y387187D01*
X123016Y387099D01*
X122246Y386992D01*
X121478Y386866D01*
X120714Y386722D01*
X119954Y386558D01*
X119198Y386376D01*
X118447Y386176D01*
X117700Y385958D01*
X116960Y385721D01*
X116225Y385466D01*
X115497Y385193D01*
X114776Y384902D01*
X114062Y384594D01*
X113356Y384269D01*
X112658Y383926D01*
X111968Y383566D01*
X111288Y383190D01*
X110617Y382797D01*
X109956Y382387D01*
X109305Y381962D01*
X108665Y381521D01*
X108036Y381064D01*
X107418Y380592D01*
X106812Y380105D01*
X106218Y379603D01*
X105636Y379087D01*
X105067Y378557D01*
X104512Y378013D01*
X103969Y377455D01*
X103441Y376885D01*
X102927Y376302D01*
X102427Y375706D01*
X101942Y375098D01*
X101472Y374479D01*
X101018Y373848D01*
X100579Y373206D01*
X100155Y372554D01*
X99748Y371891D01*
X99357Y371219D01*
X98983Y370537D01*
X98626Y369847D01*
X98286Y369148D01*
X97962Y368440D01*
X97657Y367726D01*
X97368Y367003D01*
X97098Y366274D01*
X96846Y365539D01*
X96611Y364797D01*
X96395Y364050D01*
X96197Y363298D01*
X96018Y362542D01*
X95857Y361781D01*
X95715Y361017D01*
X95592Y360249D01*
X95488Y359478D01*
X95402Y358705D01*
X95336Y357931D01*
X95288Y357155D01*
X95260Y356378D01*
X95250Y355600D01*
X95260Y354822D01*
X95288Y354045D01*
X95336Y353269D01*
X95402Y352495D01*
X95488Y351722D01*
X95592Y350951D01*
X95715Y350183D01*
X95857Y349419D01*
X96018Y348658D01*
X96197Y347902D01*
X96395Y347150D01*
X96611Y346403D01*
X96846Y345661D01*
X97098Y344926D01*
X97368Y344197D01*
X97657Y343474D01*
X97962Y342760D01*
X98286Y342052D01*
X98626Y341353D01*
X98983Y340663D01*
X99357Y339981D01*
X99748Y339309D01*
X100155Y338646D01*
X100579Y337994D01*
X101018Y337352D01*
X101472Y336721D01*
X101942Y336102D01*
X102427Y335494D01*
X102927Y334898D01*
X103441Y334315D01*
X103969Y333745D01*
X104512Y333187D01*
X105067Y332643D01*
X105636Y332113D01*
X106218Y331597D01*
X106812Y331095D01*
X107418Y330608D01*
X108036Y330136D01*
X108665Y329679D01*
X109305Y329238D01*
X109956Y328813D01*
X110617Y328403D01*
X111288Y328010D01*
X111968Y327634D01*
X112658Y327274D01*
X113356Y326931D01*
X114062Y326606D01*
X114776Y326298D01*
X115497Y326007D01*
X116225Y325734D01*
X116960Y325479D01*
X117700Y325242D01*
X118447Y325024D01*
X119198Y324824D01*
X119954Y324642D01*
X120714Y324478D01*
X121478Y324334D01*
X122246Y324208D01*
X123016Y324101D01*
X123788Y324013D01*
X124563Y323944D01*
X125339Y323893D01*
X126116Y323862D01*
X126893Y323850D01*
X127671Y323857D01*
X128448Y323883D01*
X129224Y323928D01*
X129999Y323992D01*
X130772Y324075D01*
X131543Y324177D01*
X132311Y324297D01*
X133076Y324437D01*
X133837Y324595D01*
X134595Y324772D01*
X135347Y324967D01*
X136095Y325181D01*
X136837Y325412D01*
X137574Y325662D01*
X138303Y325930D01*
X139027Y326216D01*
X139743Y326519D01*
X140451Y326840D01*
X141151Y327178D01*
X141843Y327533D01*
X142526Y327905D01*
X143199Y328294D01*
X143863Y328698D01*
X144517Y329119D01*
X145160Y329556D01*
X145793Y330009D01*
X146414Y330477D01*
X147023Y330960D01*
X147620Y331457D01*
X148205Y331970D01*
X148778Y332496D01*
X149337Y333036D01*
X149883Y333590D01*
X150415Y334157D01*
X150933Y334737D01*
X151437Y335329D01*
X151926Y335934D01*
X152400Y336550D01*
D10*
X101600Y355600D02*
X101608Y356223D01*
X101631Y356846D01*
X101669Y357469D01*
X101722Y358090D01*
X101791Y358709D01*
X101875Y359327D01*
X101974Y359942D01*
X102088Y360555D01*
X102217Y361165D01*
X102361Y361772D01*
X102520Y362375D01*
X102694Y362973D01*
X102882Y363568D01*
X103085Y364157D01*
X103302Y364741D01*
X103533Y365320D01*
X103779Y365893D01*
X104039Y366460D01*
X104312Y367020D01*
X104599Y367573D01*
X104900Y368120D01*
X105214Y368658D01*
X105541Y369189D01*
X105881Y369711D01*
X106233Y370226D01*
X106599Y370731D01*
X106976Y371227D01*
X107366Y371714D01*
X107767Y372191D01*
X108180Y372658D01*
X108604Y373114D01*
X109039Y373561D01*
X109486Y373996D01*
X109942Y374420D01*
X110409Y374833D01*
X110886Y375234D01*
X111373Y375624D01*
X111869Y376001D01*
X112374Y376367D01*
X112889Y376719D01*
X113411Y377059D01*
X113942Y377386D01*
X114480Y377700D01*
X115027Y378001D01*
X115580Y378288D01*
X116140Y378561D01*
X116707Y378821D01*
X117280Y379067D01*
X117859Y379298D01*
X118443Y379515D01*
X119032Y379718D01*
X119627Y379906D01*
X120225Y380080D01*
X120828Y380239D01*
X121435Y380383D01*
X122045Y380512D01*
X122658Y380626D01*
X123273Y380725D01*
X123891Y380809D01*
X124510Y380878D01*
X125131Y380931D01*
X125754Y380969D01*
X126377Y380992D01*
X127000Y381000D01*
X127623Y380992D01*
X128246Y380969D01*
X128869Y380931D01*
X129490Y380878D01*
X130109Y380809D01*
X130727Y380725D01*
X131342Y380626D01*
X131955Y380512D01*
X132565Y380383D01*
X133172Y380239D01*
X133775Y380080D01*
X134373Y379906D01*
X134968Y379718D01*
X135557Y379515D01*
X136141Y379298D01*
X136720Y379067D01*
X137293Y378821D01*
X137860Y378561D01*
X138420Y378288D01*
X138973Y378001D01*
X139520Y377700D01*
X140058Y377386D01*
X140589Y377059D01*
X141111Y376719D01*
X141626Y376367D01*
X142131Y376001D01*
X142627Y375624D01*
X143114Y375234D01*
X143591Y374833D01*
X144058Y374420D01*
X144514Y373996D01*
X144961Y373561D01*
X145396Y373114D01*
X145820Y372658D01*
X146233Y372191D01*
X146634Y371714D01*
X147024Y371227D01*
X147401Y370731D01*
X147767Y370226D01*
X148119Y369711D01*
X148459Y369189D01*
X148786Y368658D01*
X149100Y368120D01*
X149401Y367573D01*
X149688Y367020D01*
X149961Y366460D01*
X150221Y365893D01*
X150467Y365320D01*
X150698Y364741D01*
X150915Y364157D01*
X151118Y363568D01*
X151306Y362973D01*
X151480Y362375D01*
X151639Y361772D01*
X151783Y361165D01*
X151912Y360555D01*
X152026Y359942D01*
X152125Y359327D01*
X152209Y358709D01*
X152278Y358090D01*
X152331Y357469D01*
X152369Y356846D01*
X152392Y356223D01*
X152400Y355600D01*
X152392Y354977D01*
X152369Y354354D01*
X152331Y353731D01*
X152278Y353110D01*
X152209Y352491D01*
X152125Y351873D01*
X152026Y351258D01*
X151912Y350645D01*
X151783Y350035D01*
X151639Y349428D01*
X151480Y348825D01*
X151306Y348227D01*
X151118Y347632D01*
X150915Y347043D01*
X150698Y346459D01*
X150467Y345880D01*
X150221Y345307D01*
X149961Y344740D01*
X149688Y344180D01*
X149401Y343627D01*
X149100Y343080D01*
X148786Y342542D01*
X148459Y342011D01*
X148119Y341489D01*
X147767Y340974D01*
X147401Y340469D01*
X147024Y339973D01*
X146634Y339486D01*
X146233Y339009D01*
X145820Y338542D01*
X145396Y338086D01*
X144961Y337639D01*
X144514Y337204D01*
X144058Y336780D01*
X143591Y336367D01*
X143114Y335966D01*
X142627Y335576D01*
X142131Y335199D01*
X141626Y334833D01*
X141111Y334481D01*
X140589Y334141D01*
X140058Y333814D01*
X139520Y333500D01*
X138973Y333199D01*
X138420Y332912D01*
X137860Y332639D01*
X137293Y332379D01*
X136720Y332133D01*
X136141Y331902D01*
X135557Y331685D01*
X134968Y331482D01*
X134373Y331294D01*
X133775Y331120D01*
X133172Y330961D01*
X132565Y330817D01*
X131955Y330688D01*
X131342Y330574D01*
X130727Y330475D01*
X130109Y330391D01*
X129490Y330322D01*
X128869Y330269D01*
X128246Y330231D01*
X127623Y330208D01*
X127000Y330200D01*
X126377Y330208D01*
X125754Y330231D01*
X125131Y330269D01*
X124510Y330322D01*
X123891Y330391D01*
X123273Y330475D01*
X122658Y330574D01*
X122045Y330688D01*
X121435Y330817D01*
X120828Y330961D01*
X120225Y331120D01*
X119627Y331294D01*
X119032Y331482D01*
X118443Y331685D01*
X117859Y331902D01*
X117280Y332133D01*
X116707Y332379D01*
X116140Y332639D01*
X115580Y332912D01*
X115027Y333199D01*
X114480Y333500D01*
X113942Y333814D01*
X113411Y334141D01*
X112889Y334481D01*
X112374Y334833D01*
X111869Y335199D01*
X111373Y335576D01*
X110886Y335966D01*
X110409Y336367D01*
X109942Y336780D01*
X109486Y337204D01*
X109039Y337639D01*
X108604Y338086D01*
X108180Y338542D01*
X107767Y339009D01*
X107366Y339486D01*
X106976Y339973D01*
X106599Y340469D01*
X106233Y340974D01*
X105881Y341489D01*
X105541Y342011D01*
X105214Y342542D01*
X104900Y343080D01*
X104599Y343627D01*
X104312Y344180D01*
X104039Y344740D01*
X103779Y345307D01*
X103533Y345880D01*
X103302Y346459D01*
X103085Y347043D01*
X102882Y347632D01*
X102694Y348227D01*
X102520Y348825D01*
X102361Y349428D01*
X102217Y350035D01*
X102088Y350645D01*
X101974Y351258D01*
X101875Y351873D01*
X101791Y352491D01*
X101722Y353110D01*
X101669Y353731D01*
X101631Y354354D01*
X101608Y354977D01*
X101600Y355600D01*
D11*
X159385Y361569D02*
X159385Y372999D01*
X159385Y361569D02*
X164465Y361569D01*
X169291Y361569D02*
X174371Y361569D01*
X169291Y361569D02*
X169291Y372999D01*
X174371Y372999D01*
X173101Y367919D02*
X169291Y367919D01*
X179172Y372999D02*
X179172Y361569D01*
X179172Y372999D02*
X182347Y372999D01*
X182458Y372997D01*
X182568Y372991D01*
X182679Y372982D01*
X182789Y372968D01*
X182898Y372951D01*
X183007Y372930D01*
X183115Y372905D01*
X183222Y372876D01*
X183328Y372844D01*
X183433Y372808D01*
X183536Y372768D01*
X183638Y372725D01*
X183739Y372678D01*
X183838Y372627D01*
X183935Y372574D01*
X184029Y372517D01*
X184122Y372456D01*
X184213Y372393D01*
X184302Y372326D01*
X184388Y372256D01*
X184471Y372183D01*
X184553Y372108D01*
X184631Y372030D01*
X184706Y371948D01*
X184779Y371865D01*
X184849Y371779D01*
X184916Y371690D01*
X184979Y371599D01*
X185040Y371506D01*
X185097Y371412D01*
X185150Y371315D01*
X185201Y371216D01*
X185248Y371115D01*
X185291Y371013D01*
X185331Y370910D01*
X185367Y370805D01*
X185399Y370699D01*
X185428Y370592D01*
X185453Y370484D01*
X185474Y370375D01*
X185491Y370266D01*
X185505Y370156D01*
X185514Y370045D01*
X185520Y369935D01*
X185522Y369824D01*
X185522Y364744D01*
X185520Y364633D01*
X185514Y364523D01*
X185505Y364412D01*
X185491Y364302D01*
X185474Y364193D01*
X185453Y364084D01*
X185428Y363976D01*
X185399Y363869D01*
X185367Y363763D01*
X185331Y363658D01*
X185291Y363555D01*
X185248Y363453D01*
X185201Y363352D01*
X185150Y363253D01*
X185097Y363156D01*
X185040Y363062D01*
X184979Y362969D01*
X184916Y362878D01*
X184849Y362789D01*
X184779Y362703D01*
X184706Y362620D01*
X184631Y362538D01*
X184553Y362460D01*
X184471Y362385D01*
X184388Y362312D01*
X184302Y362242D01*
X184213Y362175D01*
X184122Y362112D01*
X184029Y362051D01*
X183934Y361994D01*
X183838Y361941D01*
X183739Y361890D01*
X183638Y361843D01*
X183536Y361800D01*
X183433Y361760D01*
X183328Y361724D01*
X183222Y361692D01*
X183115Y361663D01*
X183007Y361638D01*
X182898Y361617D01*
X182789Y361600D01*
X182679Y361586D01*
X182568Y361577D01*
X182458Y361571D01*
X182347Y361569D01*
X179172Y361569D01*
X190983Y370459D02*
X194158Y372999D01*
X194158Y361569D01*
X190983Y361569D02*
X197333Y361569D01*
D10*
X110490Y303530D02*
X110390Y303528D01*
X110291Y303522D01*
X110191Y303512D01*
X110093Y303499D01*
X109994Y303481D01*
X109897Y303460D01*
X109801Y303435D01*
X109705Y303406D01*
X109611Y303373D01*
X109518Y303337D01*
X109427Y303297D01*
X109337Y303253D01*
X109249Y303206D01*
X109163Y303156D01*
X109079Y303102D01*
X108997Y303045D01*
X108918Y302985D01*
X108840Y302921D01*
X108766Y302855D01*
X108694Y302786D01*
X108625Y302714D01*
X108559Y302640D01*
X108495Y302562D01*
X108435Y302483D01*
X108378Y302401D01*
X108324Y302317D01*
X108274Y302231D01*
X108227Y302143D01*
X108183Y302053D01*
X108143Y301962D01*
X108107Y301869D01*
X108074Y301775D01*
X108045Y301679D01*
X108020Y301583D01*
X107999Y301486D01*
X107981Y301387D01*
X107968Y301289D01*
X107958Y301189D01*
X107952Y301090D01*
X107950Y300990D01*
X107950Y283210D02*
X107952Y283110D01*
X107958Y283011D01*
X107968Y282911D01*
X107981Y282813D01*
X107999Y282714D01*
X108020Y282617D01*
X108045Y282521D01*
X108074Y282425D01*
X108107Y282331D01*
X108143Y282238D01*
X108183Y282147D01*
X108227Y282057D01*
X108274Y281969D01*
X108324Y281883D01*
X108378Y281799D01*
X108435Y281717D01*
X108495Y281638D01*
X108559Y281560D01*
X108625Y281486D01*
X108694Y281414D01*
X108766Y281345D01*
X108840Y281279D01*
X108918Y281215D01*
X108997Y281155D01*
X109079Y281098D01*
X109163Y281044D01*
X109249Y280994D01*
X109337Y280947D01*
X109427Y280903D01*
X109518Y280863D01*
X109611Y280827D01*
X109705Y280794D01*
X109801Y280765D01*
X109897Y280740D01*
X109994Y280719D01*
X110093Y280701D01*
X110191Y280688D01*
X110291Y280678D01*
X110390Y280672D01*
X110490Y280670D01*
X168910Y280670D02*
X169010Y280672D01*
X169109Y280678D01*
X169209Y280688D01*
X169307Y280701D01*
X169406Y280719D01*
X169503Y280740D01*
X169599Y280765D01*
X169695Y280794D01*
X169789Y280827D01*
X169882Y280863D01*
X169973Y280903D01*
X170063Y280947D01*
X170151Y280994D01*
X170237Y281044D01*
X170321Y281098D01*
X170403Y281155D01*
X170482Y281215D01*
X170560Y281279D01*
X170634Y281345D01*
X170706Y281414D01*
X170775Y281486D01*
X170841Y281560D01*
X170905Y281638D01*
X170965Y281717D01*
X171022Y281799D01*
X171076Y281883D01*
X171126Y281969D01*
X171173Y282057D01*
X171217Y282147D01*
X171257Y282238D01*
X171293Y282331D01*
X171326Y282425D01*
X171355Y282521D01*
X171380Y282617D01*
X171401Y282714D01*
X171419Y282813D01*
X171432Y282911D01*
X171442Y283011D01*
X171448Y283110D01*
X171450Y283210D01*
X171450Y300990D02*
X171448Y301090D01*
X171442Y301189D01*
X171432Y301289D01*
X171419Y301387D01*
X171401Y301486D01*
X171380Y301583D01*
X171355Y301679D01*
X171326Y301775D01*
X171293Y301869D01*
X171257Y301962D01*
X171217Y302053D01*
X171173Y302143D01*
X171126Y302231D01*
X171076Y302317D01*
X171022Y302401D01*
X170965Y302483D01*
X170905Y302562D01*
X170841Y302640D01*
X170775Y302714D01*
X170706Y302786D01*
X170634Y302855D01*
X170560Y302921D01*
X170482Y302985D01*
X170403Y303045D01*
X170321Y303102D01*
X170237Y303156D01*
X170151Y303206D01*
X170063Y303253D01*
X169973Y303297D01*
X169882Y303337D01*
X169789Y303373D01*
X169695Y303406D01*
X169599Y303435D01*
X169503Y303460D01*
X169406Y303481D01*
X169307Y303499D01*
X169209Y303512D01*
X169109Y303522D01*
X169010Y303528D01*
X168910Y303530D01*
X107950Y300990D02*
X107950Y283210D01*
X110490Y303530D02*
X114300Y303530D01*
X115570Y302260D01*
X114300Y280670D02*
X110490Y280670D01*
X114300Y280670D02*
X115570Y281940D01*
X163830Y302260D02*
X165100Y303530D01*
X163830Y302260D02*
X115570Y302260D01*
X163830Y281940D02*
X165100Y280670D01*
X163830Y281940D02*
X115570Y281940D01*
X165100Y303530D02*
X168910Y303530D01*
X168910Y280670D02*
X165100Y280670D01*
X171450Y283210D02*
X171450Y300990D01*
D14*
X175768Y292100D03*
X103632Y292100D03*
D11*
X98425Y311785D02*
X98425Y323215D01*
X101600Y323215D01*
X101711Y323213D01*
X101821Y323207D01*
X101932Y323198D01*
X102042Y323184D01*
X102151Y323167D01*
X102260Y323146D01*
X102368Y323121D01*
X102475Y323092D01*
X102581Y323060D01*
X102686Y323024D01*
X102789Y322984D01*
X102891Y322941D01*
X102992Y322894D01*
X103091Y322843D01*
X103188Y322790D01*
X103282Y322733D01*
X103375Y322672D01*
X103466Y322609D01*
X103555Y322542D01*
X103641Y322472D01*
X103724Y322399D01*
X103806Y322324D01*
X103884Y322246D01*
X103959Y322164D01*
X104032Y322081D01*
X104102Y321995D01*
X104169Y321906D01*
X104232Y321815D01*
X104293Y321722D01*
X104350Y321627D01*
X104403Y321531D01*
X104454Y321432D01*
X104501Y321331D01*
X104544Y321229D01*
X104584Y321126D01*
X104620Y321021D01*
X104652Y320915D01*
X104681Y320808D01*
X104706Y320700D01*
X104727Y320591D01*
X104744Y320482D01*
X104758Y320372D01*
X104767Y320261D01*
X104773Y320151D01*
X104775Y320040D01*
X104773Y319929D01*
X104767Y319819D01*
X104758Y319708D01*
X104744Y319598D01*
X104727Y319489D01*
X104706Y319380D01*
X104681Y319272D01*
X104652Y319165D01*
X104620Y319059D01*
X104584Y318954D01*
X104544Y318851D01*
X104501Y318749D01*
X104454Y318648D01*
X104403Y318549D01*
X104350Y318452D01*
X104293Y318358D01*
X104232Y318265D01*
X104169Y318174D01*
X104102Y318085D01*
X104032Y317999D01*
X103959Y317916D01*
X103884Y317834D01*
X103806Y317756D01*
X103724Y317681D01*
X103641Y317608D01*
X103555Y317538D01*
X103466Y317471D01*
X103375Y317408D01*
X103282Y317347D01*
X103187Y317290D01*
X103091Y317237D01*
X102992Y317186D01*
X102891Y317139D01*
X102789Y317096D01*
X102686Y317056D01*
X102581Y317020D01*
X102475Y316988D01*
X102368Y316959D01*
X102260Y316934D01*
X102151Y316913D01*
X102042Y316896D01*
X101932Y316882D01*
X101821Y316873D01*
X101711Y316867D01*
X101600Y316865D01*
X98425Y316865D01*
X102235Y316865D02*
X104775Y311785D01*
X109772Y320675D02*
X112947Y323215D01*
X112947Y311785D01*
X109772Y311785D02*
X116122Y311785D01*
D10*
X224790Y361950D02*
X224890Y361948D01*
X224989Y361942D01*
X225089Y361932D01*
X225187Y361919D01*
X225286Y361901D01*
X225383Y361880D01*
X225479Y361855D01*
X225575Y361826D01*
X225669Y361793D01*
X225762Y361757D01*
X225853Y361717D01*
X225943Y361673D01*
X226031Y361626D01*
X226117Y361576D01*
X226201Y361522D01*
X226283Y361465D01*
X226362Y361405D01*
X226440Y361341D01*
X226514Y361275D01*
X226586Y361206D01*
X226655Y361134D01*
X226721Y361060D01*
X226785Y360982D01*
X226845Y360903D01*
X226902Y360821D01*
X226956Y360737D01*
X227006Y360651D01*
X227053Y360563D01*
X227097Y360473D01*
X227137Y360382D01*
X227173Y360289D01*
X227206Y360195D01*
X227235Y360099D01*
X227260Y360003D01*
X227281Y359906D01*
X227299Y359807D01*
X227312Y359709D01*
X227322Y359609D01*
X227328Y359510D01*
X227330Y359410D01*
X207010Y361950D02*
X206910Y361948D01*
X206811Y361942D01*
X206711Y361932D01*
X206613Y361919D01*
X206514Y361901D01*
X206417Y361880D01*
X206321Y361855D01*
X206225Y361826D01*
X206131Y361793D01*
X206038Y361757D01*
X205947Y361717D01*
X205857Y361673D01*
X205769Y361626D01*
X205683Y361576D01*
X205599Y361522D01*
X205517Y361465D01*
X205438Y361405D01*
X205360Y361341D01*
X205286Y361275D01*
X205214Y361206D01*
X205145Y361134D01*
X205079Y361060D01*
X205015Y360982D01*
X204955Y360903D01*
X204898Y360821D01*
X204844Y360737D01*
X204794Y360651D01*
X204747Y360563D01*
X204703Y360473D01*
X204663Y360382D01*
X204627Y360289D01*
X204594Y360195D01*
X204565Y360099D01*
X204540Y360003D01*
X204519Y359906D01*
X204501Y359807D01*
X204488Y359709D01*
X204478Y359609D01*
X204472Y359510D01*
X204470Y359410D01*
X204470Y300990D02*
X204472Y300890D01*
X204478Y300791D01*
X204488Y300691D01*
X204501Y300593D01*
X204519Y300494D01*
X204540Y300397D01*
X204565Y300301D01*
X204594Y300205D01*
X204627Y300111D01*
X204663Y300018D01*
X204703Y299927D01*
X204747Y299837D01*
X204794Y299749D01*
X204844Y299663D01*
X204898Y299579D01*
X204955Y299497D01*
X205015Y299418D01*
X205079Y299340D01*
X205145Y299266D01*
X205214Y299194D01*
X205286Y299125D01*
X205360Y299059D01*
X205438Y298995D01*
X205517Y298935D01*
X205599Y298878D01*
X205683Y298824D01*
X205769Y298774D01*
X205857Y298727D01*
X205947Y298683D01*
X206038Y298643D01*
X206131Y298607D01*
X206225Y298574D01*
X206321Y298545D01*
X206417Y298520D01*
X206514Y298499D01*
X206613Y298481D01*
X206711Y298468D01*
X206811Y298458D01*
X206910Y298452D01*
X207010Y298450D01*
X224790Y298450D02*
X224890Y298452D01*
X224989Y298458D01*
X225089Y298468D01*
X225187Y298481D01*
X225286Y298499D01*
X225383Y298520D01*
X225479Y298545D01*
X225575Y298574D01*
X225669Y298607D01*
X225762Y298643D01*
X225853Y298683D01*
X225943Y298727D01*
X226031Y298774D01*
X226117Y298824D01*
X226201Y298878D01*
X226283Y298935D01*
X226362Y298995D01*
X226440Y299059D01*
X226514Y299125D01*
X226586Y299194D01*
X226655Y299266D01*
X226721Y299340D01*
X226785Y299418D01*
X226845Y299497D01*
X226902Y299579D01*
X226956Y299663D01*
X227006Y299749D01*
X227053Y299837D01*
X227097Y299927D01*
X227137Y300018D01*
X227173Y300111D01*
X227206Y300205D01*
X227235Y300301D01*
X227260Y300397D01*
X227281Y300494D01*
X227299Y300593D01*
X227312Y300691D01*
X227322Y300791D01*
X227328Y300890D01*
X227330Y300990D01*
X224790Y361950D02*
X207010Y361950D01*
X227330Y359410D02*
X227330Y355600D01*
X226060Y354330D01*
X204470Y355600D02*
X204470Y359410D01*
X204470Y355600D02*
X205740Y354330D01*
X226060Y306070D02*
X227330Y304800D01*
X226060Y306070D02*
X226060Y354330D01*
X205740Y306070D02*
X204470Y304800D01*
X205740Y306070D02*
X205740Y354330D01*
X227330Y304800D02*
X227330Y300990D01*
X204470Y300990D02*
X204470Y304800D01*
X207010Y298450D02*
X224790Y298450D01*
D15*
X215900Y294132D03*
X215900Y366268D03*
D11*
X235585Y353778D02*
X247015Y353778D01*
X235585Y353778D02*
X235585Y356953D01*
X235587Y357064D01*
X235593Y357174D01*
X235602Y357285D01*
X235616Y357395D01*
X235633Y357504D01*
X235654Y357613D01*
X235679Y357721D01*
X235708Y357828D01*
X235740Y357934D01*
X235776Y358039D01*
X235816Y358142D01*
X235859Y358244D01*
X235906Y358345D01*
X235957Y358444D01*
X236010Y358541D01*
X236067Y358635D01*
X236128Y358728D01*
X236191Y358819D01*
X236258Y358908D01*
X236328Y358994D01*
X236401Y359077D01*
X236476Y359159D01*
X236554Y359237D01*
X236636Y359312D01*
X236719Y359385D01*
X236805Y359455D01*
X236894Y359522D01*
X236985Y359585D01*
X237078Y359646D01*
X237173Y359703D01*
X237269Y359756D01*
X237368Y359807D01*
X237469Y359854D01*
X237571Y359897D01*
X237674Y359937D01*
X237779Y359973D01*
X237885Y360005D01*
X237992Y360034D01*
X238100Y360059D01*
X238209Y360080D01*
X238318Y360097D01*
X238428Y360111D01*
X238539Y360120D01*
X238649Y360126D01*
X238760Y360128D01*
X238871Y360126D01*
X238981Y360120D01*
X239092Y360111D01*
X239202Y360097D01*
X239311Y360080D01*
X239420Y360059D01*
X239528Y360034D01*
X239635Y360005D01*
X239741Y359973D01*
X239846Y359937D01*
X239949Y359897D01*
X240051Y359854D01*
X240152Y359807D01*
X240251Y359756D01*
X240348Y359703D01*
X240442Y359646D01*
X240535Y359585D01*
X240626Y359522D01*
X240715Y359455D01*
X240801Y359385D01*
X240884Y359312D01*
X240966Y359237D01*
X241044Y359159D01*
X241119Y359077D01*
X241192Y358994D01*
X241262Y358908D01*
X241329Y358819D01*
X241392Y358728D01*
X241453Y358635D01*
X241510Y358541D01*
X241563Y358444D01*
X241614Y358345D01*
X241661Y358244D01*
X241704Y358142D01*
X241744Y358039D01*
X241780Y357934D01*
X241812Y357828D01*
X241841Y357721D01*
X241866Y357613D01*
X241887Y357504D01*
X241904Y357395D01*
X241918Y357285D01*
X241927Y357174D01*
X241933Y357064D01*
X241935Y356953D01*
X241935Y353778D01*
X241935Y357588D02*
X247015Y360128D01*
X238443Y371476D02*
X238339Y371474D01*
X238234Y371468D01*
X238130Y371459D01*
X238027Y371446D01*
X237924Y371428D01*
X237822Y371408D01*
X237720Y371383D01*
X237620Y371355D01*
X237520Y371323D01*
X237422Y371287D01*
X237325Y371248D01*
X237230Y371206D01*
X237136Y371160D01*
X237044Y371110D01*
X236954Y371058D01*
X236866Y371002D01*
X236780Y370942D01*
X236696Y370880D01*
X236615Y370815D01*
X236536Y370747D01*
X236459Y370675D01*
X236386Y370602D01*
X236314Y370525D01*
X236246Y370446D01*
X236181Y370365D01*
X236119Y370281D01*
X236059Y370195D01*
X236003Y370107D01*
X235951Y370017D01*
X235901Y369925D01*
X235855Y369831D01*
X235813Y369736D01*
X235774Y369639D01*
X235738Y369541D01*
X235706Y369441D01*
X235678Y369341D01*
X235653Y369239D01*
X235633Y369137D01*
X235615Y369034D01*
X235602Y368931D01*
X235593Y368827D01*
X235587Y368722D01*
X235585Y368618D01*
X235587Y368500D01*
X235593Y368381D01*
X235602Y368263D01*
X235615Y368146D01*
X235633Y368029D01*
X235653Y367912D01*
X235678Y367796D01*
X235706Y367681D01*
X235739Y367568D01*
X235774Y367455D01*
X235814Y367343D01*
X235856Y367233D01*
X235903Y367124D01*
X235953Y367016D01*
X236006Y366911D01*
X236063Y366807D01*
X236123Y366705D01*
X236186Y366605D01*
X236253Y366507D01*
X236322Y366411D01*
X236395Y366318D01*
X236471Y366227D01*
X236549Y366138D01*
X236631Y366052D01*
X236715Y365969D01*
X236801Y365888D01*
X236891Y365811D01*
X236982Y365736D01*
X237076Y365664D01*
X237173Y365595D01*
X237271Y365530D01*
X237372Y365467D01*
X237475Y365408D01*
X237579Y365352D01*
X237685Y365300D01*
X237793Y365251D01*
X237902Y365206D01*
X238013Y365164D01*
X238125Y365126D01*
X240665Y370523D02*
X240590Y370599D01*
X240511Y370674D01*
X240430Y370745D01*
X240346Y370814D01*
X240260Y370879D01*
X240172Y370941D01*
X240082Y371001D01*
X239990Y371057D01*
X239895Y371110D01*
X239799Y371159D01*
X239701Y371205D01*
X239602Y371248D01*
X239501Y371287D01*
X239399Y371322D01*
X239296Y371354D01*
X239192Y371382D01*
X239087Y371407D01*
X238980Y371428D01*
X238874Y371445D01*
X238767Y371458D01*
X238659Y371467D01*
X238551Y371473D01*
X238443Y371475D01*
X240665Y370523D02*
X247015Y365125D01*
X247015Y371475D01*
D10*
X41910Y209550D02*
X41810Y209552D01*
X41711Y209558D01*
X41611Y209568D01*
X41513Y209581D01*
X41414Y209599D01*
X41317Y209620D01*
X41221Y209645D01*
X41125Y209674D01*
X41031Y209707D01*
X40938Y209743D01*
X40847Y209783D01*
X40757Y209827D01*
X40669Y209874D01*
X40583Y209924D01*
X40499Y209978D01*
X40417Y210035D01*
X40338Y210095D01*
X40260Y210159D01*
X40186Y210225D01*
X40114Y210294D01*
X40045Y210366D01*
X39979Y210440D01*
X39915Y210518D01*
X39855Y210597D01*
X39798Y210679D01*
X39744Y210763D01*
X39694Y210849D01*
X39647Y210937D01*
X39603Y211027D01*
X39563Y211118D01*
X39527Y211211D01*
X39494Y211305D01*
X39465Y211401D01*
X39440Y211497D01*
X39419Y211594D01*
X39401Y211693D01*
X39388Y211791D01*
X39378Y211891D01*
X39372Y211990D01*
X39370Y212090D01*
X59690Y209550D02*
X59790Y209552D01*
X59889Y209558D01*
X59989Y209568D01*
X60087Y209581D01*
X60186Y209599D01*
X60283Y209620D01*
X60379Y209645D01*
X60475Y209674D01*
X60569Y209707D01*
X60662Y209743D01*
X60753Y209783D01*
X60843Y209827D01*
X60931Y209874D01*
X61017Y209924D01*
X61101Y209978D01*
X61183Y210035D01*
X61262Y210095D01*
X61340Y210159D01*
X61414Y210225D01*
X61486Y210294D01*
X61555Y210366D01*
X61621Y210440D01*
X61685Y210518D01*
X61745Y210597D01*
X61802Y210679D01*
X61856Y210763D01*
X61906Y210849D01*
X61953Y210937D01*
X61997Y211027D01*
X62037Y211118D01*
X62073Y211211D01*
X62106Y211305D01*
X62135Y211401D01*
X62160Y211497D01*
X62181Y211594D01*
X62199Y211693D01*
X62212Y211791D01*
X62222Y211891D01*
X62228Y211990D01*
X62230Y212090D01*
X62230Y270510D02*
X62228Y270610D01*
X62222Y270709D01*
X62212Y270809D01*
X62199Y270907D01*
X62181Y271006D01*
X62160Y271103D01*
X62135Y271199D01*
X62106Y271295D01*
X62073Y271389D01*
X62037Y271482D01*
X61997Y271573D01*
X61953Y271663D01*
X61906Y271751D01*
X61856Y271837D01*
X61802Y271921D01*
X61745Y272003D01*
X61685Y272082D01*
X61621Y272160D01*
X61555Y272234D01*
X61486Y272306D01*
X61414Y272375D01*
X61340Y272441D01*
X61262Y272505D01*
X61183Y272565D01*
X61101Y272622D01*
X61017Y272676D01*
X60931Y272726D01*
X60843Y272773D01*
X60753Y272817D01*
X60662Y272857D01*
X60569Y272893D01*
X60475Y272926D01*
X60379Y272955D01*
X60283Y272980D01*
X60186Y273001D01*
X60087Y273019D01*
X59989Y273032D01*
X59889Y273042D01*
X59790Y273048D01*
X59690Y273050D01*
X41910Y273050D02*
X41810Y273048D01*
X41711Y273042D01*
X41611Y273032D01*
X41513Y273019D01*
X41414Y273001D01*
X41317Y272980D01*
X41221Y272955D01*
X41125Y272926D01*
X41031Y272893D01*
X40938Y272857D01*
X40847Y272817D01*
X40757Y272773D01*
X40669Y272726D01*
X40583Y272676D01*
X40499Y272622D01*
X40417Y272565D01*
X40338Y272505D01*
X40260Y272441D01*
X40186Y272375D01*
X40114Y272306D01*
X40045Y272234D01*
X39979Y272160D01*
X39915Y272082D01*
X39855Y272003D01*
X39798Y271921D01*
X39744Y271837D01*
X39694Y271751D01*
X39647Y271663D01*
X39603Y271573D01*
X39563Y271482D01*
X39527Y271389D01*
X39494Y271295D01*
X39465Y271199D01*
X39440Y271103D01*
X39419Y271006D01*
X39401Y270907D01*
X39388Y270809D01*
X39378Y270709D01*
X39372Y270610D01*
X39370Y270510D01*
X41910Y209550D02*
X59690Y209550D01*
X39370Y212090D02*
X39370Y215900D01*
X40640Y217170D01*
X62230Y215900D02*
X62230Y212090D01*
X62230Y215900D02*
X60960Y217170D01*
X40640Y265430D02*
X39370Y266700D01*
X40640Y265430D02*
X40640Y217170D01*
X60960Y265430D02*
X62230Y266700D01*
X60960Y265430D02*
X60960Y217170D01*
X39370Y266700D02*
X39370Y270510D01*
X62230Y270510D02*
X62230Y266700D01*
X59690Y273050D02*
X41910Y273050D01*
D15*
X50800Y277368D03*
X50800Y205232D03*
D11*
X31115Y200025D02*
X19685Y200025D01*
X19685Y203200D01*
X19687Y203311D01*
X19693Y203421D01*
X19702Y203532D01*
X19716Y203642D01*
X19733Y203751D01*
X19754Y203860D01*
X19779Y203968D01*
X19808Y204075D01*
X19840Y204181D01*
X19876Y204286D01*
X19916Y204389D01*
X19959Y204491D01*
X20006Y204592D01*
X20057Y204691D01*
X20110Y204788D01*
X20167Y204882D01*
X20228Y204975D01*
X20291Y205066D01*
X20358Y205155D01*
X20428Y205241D01*
X20501Y205324D01*
X20576Y205406D01*
X20654Y205484D01*
X20736Y205559D01*
X20819Y205632D01*
X20905Y205702D01*
X20994Y205769D01*
X21085Y205832D01*
X21178Y205893D01*
X21272Y205950D01*
X21369Y206003D01*
X21468Y206054D01*
X21569Y206101D01*
X21671Y206144D01*
X21774Y206184D01*
X21879Y206220D01*
X21985Y206252D01*
X22092Y206281D01*
X22200Y206306D01*
X22309Y206327D01*
X22418Y206344D01*
X22528Y206358D01*
X22639Y206367D01*
X22749Y206373D01*
X22860Y206375D01*
X22971Y206373D01*
X23081Y206367D01*
X23192Y206358D01*
X23302Y206344D01*
X23411Y206327D01*
X23520Y206306D01*
X23628Y206281D01*
X23735Y206252D01*
X23841Y206220D01*
X23946Y206184D01*
X24049Y206144D01*
X24151Y206101D01*
X24252Y206054D01*
X24351Y206003D01*
X24448Y205950D01*
X24542Y205893D01*
X24635Y205832D01*
X24726Y205769D01*
X24815Y205702D01*
X24901Y205632D01*
X24984Y205559D01*
X25066Y205484D01*
X25144Y205406D01*
X25219Y205324D01*
X25292Y205241D01*
X25362Y205155D01*
X25429Y205066D01*
X25492Y204975D01*
X25553Y204882D01*
X25610Y204788D01*
X25663Y204691D01*
X25714Y204592D01*
X25761Y204491D01*
X25804Y204389D01*
X25844Y204286D01*
X25880Y204181D01*
X25912Y204075D01*
X25941Y203968D01*
X25966Y203860D01*
X25987Y203751D01*
X26004Y203642D01*
X26018Y203532D01*
X26027Y203421D01*
X26033Y203311D01*
X26035Y203200D01*
X26035Y200025D01*
X26035Y203835D02*
X31115Y206375D01*
X31115Y211372D02*
X31115Y215182D01*
X31113Y215282D01*
X31107Y215381D01*
X31097Y215481D01*
X31084Y215579D01*
X31066Y215678D01*
X31045Y215775D01*
X31020Y215871D01*
X30991Y215967D01*
X30958Y216061D01*
X30922Y216154D01*
X30882Y216245D01*
X30838Y216335D01*
X30791Y216423D01*
X30741Y216509D01*
X30687Y216593D01*
X30630Y216675D01*
X30570Y216754D01*
X30506Y216832D01*
X30440Y216906D01*
X30371Y216978D01*
X30299Y217047D01*
X30225Y217113D01*
X30147Y217177D01*
X30068Y217237D01*
X29986Y217294D01*
X29902Y217348D01*
X29816Y217398D01*
X29728Y217445D01*
X29638Y217489D01*
X29547Y217529D01*
X29454Y217565D01*
X29360Y217598D01*
X29264Y217627D01*
X29168Y217652D01*
X29071Y217673D01*
X28972Y217691D01*
X28874Y217704D01*
X28774Y217714D01*
X28675Y217720D01*
X28575Y217722D01*
X27305Y217722D01*
X27205Y217720D01*
X27106Y217714D01*
X27006Y217704D01*
X26908Y217691D01*
X26809Y217673D01*
X26712Y217652D01*
X26616Y217627D01*
X26520Y217598D01*
X26426Y217565D01*
X26333Y217529D01*
X26242Y217489D01*
X26152Y217445D01*
X26064Y217398D01*
X25978Y217348D01*
X25894Y217294D01*
X25812Y217237D01*
X25733Y217177D01*
X25655Y217113D01*
X25581Y217047D01*
X25509Y216978D01*
X25440Y216906D01*
X25374Y216832D01*
X25310Y216754D01*
X25250Y216675D01*
X25193Y216593D01*
X25139Y216509D01*
X25089Y216423D01*
X25042Y216335D01*
X24998Y216245D01*
X24958Y216154D01*
X24922Y216061D01*
X24889Y215967D01*
X24860Y215871D01*
X24835Y215775D01*
X24814Y215678D01*
X24796Y215579D01*
X24783Y215481D01*
X24773Y215381D01*
X24767Y215282D01*
X24765Y215182D01*
X24765Y211372D01*
X19685Y211372D01*
X19685Y217722D01*
D10*
X88900Y245110D02*
X190500Y245110D01*
X190500Y186690D02*
X88900Y186690D01*
X190500Y186690D02*
X190500Y245110D01*
X88900Y245110D02*
X88900Y226060D01*
X88900Y205740D02*
X88900Y186690D01*
X88900Y205740D02*
X89147Y205743D01*
X89395Y205752D01*
X89642Y205767D01*
X89888Y205788D01*
X90134Y205815D01*
X90379Y205848D01*
X90624Y205887D01*
X90867Y205932D01*
X91109Y205983D01*
X91350Y206040D01*
X91589Y206102D01*
X91827Y206171D01*
X92063Y206245D01*
X92297Y206325D01*
X92529Y206410D01*
X92759Y206502D01*
X92987Y206598D01*
X93212Y206701D01*
X93435Y206808D01*
X93655Y206922D01*
X93872Y207040D01*
X94087Y207164D01*
X94298Y207293D01*
X94506Y207427D01*
X94711Y207566D01*
X94912Y207710D01*
X95110Y207858D01*
X95304Y208012D01*
X95494Y208170D01*
X95680Y208333D01*
X95862Y208500D01*
X96040Y208672D01*
X96214Y208848D01*
X96384Y209028D01*
X96549Y209213D01*
X96709Y209401D01*
X96865Y209593D01*
X97017Y209789D01*
X97163Y209988D01*
X97305Y210191D01*
X97441Y210398D01*
X97573Y210607D01*
X97699Y210820D01*
X97820Y211036D01*
X97936Y211254D01*
X98046Y211476D01*
X98151Y211700D01*
X98251Y211926D01*
X98345Y212155D01*
X98433Y212386D01*
X98516Y212620D01*
X98593Y212855D01*
X98664Y213092D01*
X98730Y213330D01*
X98789Y213570D01*
X98843Y213812D01*
X98891Y214055D01*
X98933Y214298D01*
X98969Y214543D01*
X98999Y214789D01*
X99023Y215035D01*
X99041Y215282D01*
X99053Y215529D01*
X99059Y215776D01*
X99059Y216024D01*
X99053Y216271D01*
X99041Y216518D01*
X99023Y216765D01*
X98999Y217011D01*
X98969Y217257D01*
X98933Y217502D01*
X98891Y217745D01*
X98843Y217988D01*
X98789Y218230D01*
X98730Y218470D01*
X98664Y218708D01*
X98593Y218945D01*
X98516Y219180D01*
X98433Y219414D01*
X98345Y219645D01*
X98251Y219874D01*
X98151Y220100D01*
X98046Y220324D01*
X97936Y220546D01*
X97820Y220764D01*
X97699Y220980D01*
X97573Y221193D01*
X97441Y221402D01*
X97305Y221609D01*
X97163Y221812D01*
X97017Y222011D01*
X96865Y222207D01*
X96709Y222399D01*
X96549Y222587D01*
X96384Y222772D01*
X96214Y222952D01*
X96040Y223128D01*
X95862Y223300D01*
X95680Y223467D01*
X95494Y223630D01*
X95304Y223788D01*
X95110Y223942D01*
X94912Y224090D01*
X94711Y224234D01*
X94506Y224373D01*
X94298Y224507D01*
X94087Y224636D01*
X93872Y224760D01*
X93655Y224878D01*
X93435Y224992D01*
X93212Y225099D01*
X92987Y225202D01*
X92759Y225298D01*
X92529Y225390D01*
X92297Y225475D01*
X92063Y225555D01*
X91827Y225629D01*
X91589Y225698D01*
X91350Y225760D01*
X91109Y225817D01*
X90867Y225868D01*
X90624Y225913D01*
X90379Y225952D01*
X90134Y225985D01*
X89888Y226012D01*
X89642Y226033D01*
X89395Y226048D01*
X89147Y226057D01*
X88900Y226060D01*
D11*
X85725Y190500D02*
X74295Y190500D01*
X74295Y187325D02*
X74295Y193675D01*
X74295Y198882D02*
X85725Y198882D01*
X85725Y197612D02*
X85725Y200152D01*
X74295Y200152D02*
X74295Y197612D01*
X74295Y205359D02*
X85725Y205359D01*
X80645Y209169D02*
X74295Y205359D01*
X80645Y209169D02*
X74295Y212979D01*
X85725Y212979D01*
X85725Y218973D02*
X85725Y224053D01*
X85725Y218973D02*
X74295Y218973D01*
X74295Y224053D01*
X79375Y222783D02*
X79375Y218973D01*
X74295Y228937D02*
X85725Y228937D01*
X74295Y228937D02*
X74295Y232112D01*
X74297Y232223D01*
X74303Y232333D01*
X74312Y232444D01*
X74326Y232554D01*
X74343Y232663D01*
X74364Y232772D01*
X74389Y232880D01*
X74418Y232987D01*
X74450Y233093D01*
X74486Y233198D01*
X74526Y233301D01*
X74569Y233403D01*
X74616Y233504D01*
X74667Y233603D01*
X74720Y233700D01*
X74777Y233794D01*
X74838Y233887D01*
X74901Y233978D01*
X74968Y234067D01*
X75038Y234153D01*
X75111Y234236D01*
X75186Y234318D01*
X75264Y234396D01*
X75346Y234471D01*
X75429Y234544D01*
X75515Y234614D01*
X75604Y234681D01*
X75695Y234744D01*
X75788Y234805D01*
X75883Y234862D01*
X75979Y234915D01*
X76078Y234966D01*
X76179Y235013D01*
X76281Y235056D01*
X76384Y235096D01*
X76489Y235132D01*
X76595Y235164D01*
X76702Y235193D01*
X76810Y235218D01*
X76919Y235239D01*
X77028Y235256D01*
X77138Y235270D01*
X77249Y235279D01*
X77359Y235285D01*
X77470Y235287D01*
X77581Y235285D01*
X77691Y235279D01*
X77802Y235270D01*
X77912Y235256D01*
X78021Y235239D01*
X78130Y235218D01*
X78238Y235193D01*
X78345Y235164D01*
X78451Y235132D01*
X78556Y235096D01*
X78659Y235056D01*
X78761Y235013D01*
X78862Y234966D01*
X78961Y234915D01*
X79058Y234862D01*
X79152Y234805D01*
X79245Y234744D01*
X79336Y234681D01*
X79425Y234614D01*
X79511Y234544D01*
X79594Y234471D01*
X79676Y234396D01*
X79754Y234318D01*
X79829Y234236D01*
X79902Y234153D01*
X79972Y234067D01*
X80039Y233978D01*
X80102Y233887D01*
X80163Y233794D01*
X80220Y233700D01*
X80273Y233603D01*
X80324Y233504D01*
X80371Y233403D01*
X80414Y233301D01*
X80454Y233198D01*
X80490Y233093D01*
X80522Y232987D01*
X80551Y232880D01*
X80576Y232772D01*
X80597Y232663D01*
X80614Y232554D01*
X80628Y232444D01*
X80637Y232333D01*
X80643Y232223D01*
X80645Y232112D01*
X80645Y228937D01*
X80645Y232747D02*
X85725Y235287D01*
D16*
X136652Y133350D02*
X136652Y127000D01*
X136652Y120650D01*
D10*
X136652Y127000D02*
X124460Y127000D01*
D16*
X143002Y127000D02*
X143002Y133350D01*
X143002Y127000D02*
X143002Y120650D01*
D10*
X143002Y127000D02*
X154940Y127000D01*
X102870Y139700D02*
X102870Y114300D01*
X105410Y111760D02*
X173990Y111760D01*
X176530Y114300D02*
X176530Y139700D01*
X173990Y142240D02*
X105410Y142240D01*
X173990Y142240D02*
X174090Y142238D01*
X174189Y142232D01*
X174289Y142222D01*
X174387Y142209D01*
X174486Y142191D01*
X174583Y142170D01*
X174679Y142145D01*
X174775Y142116D01*
X174869Y142083D01*
X174962Y142047D01*
X175053Y142007D01*
X175143Y141963D01*
X175231Y141916D01*
X175317Y141866D01*
X175401Y141812D01*
X175483Y141755D01*
X175562Y141695D01*
X175640Y141631D01*
X175714Y141565D01*
X175786Y141496D01*
X175855Y141424D01*
X175921Y141350D01*
X175985Y141272D01*
X176045Y141193D01*
X176102Y141111D01*
X176156Y141027D01*
X176206Y140941D01*
X176253Y140853D01*
X176297Y140763D01*
X176337Y140672D01*
X176373Y140579D01*
X176406Y140485D01*
X176435Y140389D01*
X176460Y140293D01*
X176481Y140196D01*
X176499Y140097D01*
X176512Y139999D01*
X176522Y139899D01*
X176528Y139800D01*
X176530Y139700D01*
X176530Y114300D02*
X176528Y114200D01*
X176522Y114101D01*
X176512Y114001D01*
X176499Y113903D01*
X176481Y113804D01*
X176460Y113707D01*
X176435Y113611D01*
X176406Y113515D01*
X176373Y113421D01*
X176337Y113328D01*
X176297Y113237D01*
X176253Y113147D01*
X176206Y113059D01*
X176156Y112973D01*
X176102Y112889D01*
X176045Y112807D01*
X175985Y112728D01*
X175921Y112650D01*
X175855Y112576D01*
X175786Y112504D01*
X175714Y112435D01*
X175640Y112369D01*
X175562Y112305D01*
X175483Y112245D01*
X175401Y112188D01*
X175317Y112134D01*
X175231Y112084D01*
X175143Y112037D01*
X175053Y111993D01*
X174962Y111953D01*
X174869Y111917D01*
X174775Y111884D01*
X174679Y111855D01*
X174583Y111830D01*
X174486Y111809D01*
X174387Y111791D01*
X174289Y111778D01*
X174189Y111768D01*
X174090Y111762D01*
X173990Y111760D01*
X105410Y111760D02*
X105310Y111762D01*
X105211Y111768D01*
X105111Y111778D01*
X105013Y111791D01*
X104914Y111809D01*
X104817Y111830D01*
X104721Y111855D01*
X104625Y111884D01*
X104531Y111917D01*
X104438Y111953D01*
X104347Y111993D01*
X104257Y112037D01*
X104169Y112084D01*
X104083Y112134D01*
X103999Y112188D01*
X103917Y112245D01*
X103838Y112305D01*
X103760Y112369D01*
X103686Y112435D01*
X103614Y112504D01*
X103545Y112576D01*
X103479Y112650D01*
X103415Y112728D01*
X103355Y112807D01*
X103298Y112889D01*
X103244Y112973D01*
X103194Y113059D01*
X103147Y113147D01*
X103103Y113237D01*
X103063Y113328D01*
X103027Y113421D01*
X102994Y113515D01*
X102965Y113611D01*
X102940Y113707D01*
X102919Y113804D01*
X102901Y113903D01*
X102888Y114001D01*
X102878Y114101D01*
X102872Y114200D01*
X102870Y114300D01*
X102870Y139700D02*
X102872Y139800D01*
X102878Y139899D01*
X102888Y139999D01*
X102901Y140097D01*
X102919Y140196D01*
X102940Y140293D01*
X102965Y140389D01*
X102994Y140485D01*
X103027Y140579D01*
X103063Y140672D01*
X103103Y140763D01*
X103147Y140853D01*
X103194Y140941D01*
X103244Y141027D01*
X103298Y141111D01*
X103355Y141193D01*
X103415Y141272D01*
X103479Y141350D01*
X103545Y141424D01*
X103614Y141496D01*
X103686Y141565D01*
X103760Y141631D01*
X103838Y141695D01*
X103917Y141755D01*
X103999Y141812D01*
X104083Y141866D01*
X104169Y141916D01*
X104257Y141963D01*
X104347Y142007D01*
X104438Y142047D01*
X104531Y142083D01*
X104625Y142116D01*
X104721Y142145D01*
X104817Y142170D01*
X104914Y142191D01*
X105013Y142209D01*
X105111Y142222D01*
X105211Y142232D01*
X105310Y142238D01*
X105410Y142240D01*
D11*
X117475Y145415D02*
X120015Y145415D01*
X117475Y145415D02*
X117375Y145417D01*
X117276Y145423D01*
X117176Y145433D01*
X117078Y145446D01*
X116979Y145464D01*
X116882Y145485D01*
X116786Y145510D01*
X116690Y145539D01*
X116596Y145572D01*
X116503Y145608D01*
X116412Y145648D01*
X116322Y145692D01*
X116234Y145739D01*
X116148Y145789D01*
X116064Y145843D01*
X115982Y145900D01*
X115903Y145960D01*
X115825Y146024D01*
X115751Y146090D01*
X115679Y146159D01*
X115610Y146231D01*
X115544Y146305D01*
X115480Y146383D01*
X115420Y146462D01*
X115363Y146544D01*
X115309Y146628D01*
X115259Y146714D01*
X115212Y146802D01*
X115168Y146892D01*
X115128Y146983D01*
X115092Y147076D01*
X115059Y147170D01*
X115030Y147266D01*
X115005Y147362D01*
X114984Y147459D01*
X114966Y147558D01*
X114953Y147656D01*
X114943Y147756D01*
X114937Y147855D01*
X114935Y147955D01*
X114935Y154305D01*
X114937Y154405D01*
X114943Y154504D01*
X114953Y154604D01*
X114966Y154702D01*
X114984Y154801D01*
X115005Y154898D01*
X115030Y154994D01*
X115059Y155090D01*
X115092Y155184D01*
X115128Y155277D01*
X115168Y155368D01*
X115212Y155458D01*
X115259Y155546D01*
X115309Y155632D01*
X115363Y155716D01*
X115420Y155798D01*
X115480Y155877D01*
X115544Y155955D01*
X115610Y156029D01*
X115679Y156101D01*
X115751Y156170D01*
X115825Y156236D01*
X115903Y156300D01*
X115982Y156360D01*
X116064Y156417D01*
X116148Y156471D01*
X116234Y156521D01*
X116322Y156568D01*
X116412Y156612D01*
X116503Y156652D01*
X116596Y156688D01*
X116690Y156721D01*
X116786Y156750D01*
X116882Y156775D01*
X116979Y156796D01*
X117078Y156814D01*
X117176Y156827D01*
X117276Y156837D01*
X117375Y156843D01*
X117475Y156845D01*
X120015Y156845D01*
X124497Y154305D02*
X127672Y156845D01*
X127672Y145415D01*
X124497Y145415D02*
X130847Y145415D01*
D10*
X224790Y234950D02*
X224890Y234948D01*
X224989Y234942D01*
X225089Y234932D01*
X225187Y234919D01*
X225286Y234901D01*
X225383Y234880D01*
X225479Y234855D01*
X225575Y234826D01*
X225669Y234793D01*
X225762Y234757D01*
X225853Y234717D01*
X225943Y234673D01*
X226031Y234626D01*
X226117Y234576D01*
X226201Y234522D01*
X226283Y234465D01*
X226362Y234405D01*
X226440Y234341D01*
X226514Y234275D01*
X226586Y234206D01*
X226655Y234134D01*
X226721Y234060D01*
X226785Y233982D01*
X226845Y233903D01*
X226902Y233821D01*
X226956Y233737D01*
X227006Y233651D01*
X227053Y233563D01*
X227097Y233473D01*
X227137Y233382D01*
X227173Y233289D01*
X227206Y233195D01*
X227235Y233099D01*
X227260Y233003D01*
X227281Y232906D01*
X227299Y232807D01*
X227312Y232709D01*
X227322Y232609D01*
X227328Y232510D01*
X227330Y232410D01*
X207010Y234950D02*
X206910Y234948D01*
X206811Y234942D01*
X206711Y234932D01*
X206613Y234919D01*
X206514Y234901D01*
X206417Y234880D01*
X206321Y234855D01*
X206225Y234826D01*
X206131Y234793D01*
X206038Y234757D01*
X205947Y234717D01*
X205857Y234673D01*
X205769Y234626D01*
X205683Y234576D01*
X205599Y234522D01*
X205517Y234465D01*
X205438Y234405D01*
X205360Y234341D01*
X205286Y234275D01*
X205214Y234206D01*
X205145Y234134D01*
X205079Y234060D01*
X205015Y233982D01*
X204955Y233903D01*
X204898Y233821D01*
X204844Y233737D01*
X204794Y233651D01*
X204747Y233563D01*
X204703Y233473D01*
X204663Y233382D01*
X204627Y233289D01*
X204594Y233195D01*
X204565Y233099D01*
X204540Y233003D01*
X204519Y232906D01*
X204501Y232807D01*
X204488Y232709D01*
X204478Y232609D01*
X204472Y232510D01*
X204470Y232410D01*
X204470Y173990D02*
X204472Y173890D01*
X204478Y173791D01*
X204488Y173691D01*
X204501Y173593D01*
X204519Y173494D01*
X204540Y173397D01*
X204565Y173301D01*
X204594Y173205D01*
X204627Y173111D01*
X204663Y173018D01*
X204703Y172927D01*
X204747Y172837D01*
X204794Y172749D01*
X204844Y172663D01*
X204898Y172579D01*
X204955Y172497D01*
X205015Y172418D01*
X205079Y172340D01*
X205145Y172266D01*
X205214Y172194D01*
X205286Y172125D01*
X205360Y172059D01*
X205438Y171995D01*
X205517Y171935D01*
X205599Y171878D01*
X205683Y171824D01*
X205769Y171774D01*
X205857Y171727D01*
X205947Y171683D01*
X206038Y171643D01*
X206131Y171607D01*
X206225Y171574D01*
X206321Y171545D01*
X206417Y171520D01*
X206514Y171499D01*
X206613Y171481D01*
X206711Y171468D01*
X206811Y171458D01*
X206910Y171452D01*
X207010Y171450D01*
X224790Y171450D02*
X224890Y171452D01*
X224989Y171458D01*
X225089Y171468D01*
X225187Y171481D01*
X225286Y171499D01*
X225383Y171520D01*
X225479Y171545D01*
X225575Y171574D01*
X225669Y171607D01*
X225762Y171643D01*
X225853Y171683D01*
X225943Y171727D01*
X226031Y171774D01*
X226117Y171824D01*
X226201Y171878D01*
X226283Y171935D01*
X226362Y171995D01*
X226440Y172059D01*
X226514Y172125D01*
X226586Y172194D01*
X226655Y172266D01*
X226721Y172340D01*
X226785Y172418D01*
X226845Y172497D01*
X226902Y172579D01*
X226956Y172663D01*
X227006Y172749D01*
X227053Y172837D01*
X227097Y172927D01*
X227137Y173018D01*
X227173Y173111D01*
X227206Y173205D01*
X227235Y173301D01*
X227260Y173397D01*
X227281Y173494D01*
X227299Y173593D01*
X227312Y173691D01*
X227322Y173791D01*
X227328Y173890D01*
X227330Y173990D01*
X224790Y234950D02*
X207010Y234950D01*
X227330Y232410D02*
X227330Y228600D01*
X226060Y227330D01*
X204470Y228600D02*
X204470Y232410D01*
X204470Y228600D02*
X205740Y227330D01*
X226060Y179070D02*
X227330Y177800D01*
X226060Y179070D02*
X226060Y227330D01*
X205740Y179070D02*
X204470Y177800D01*
X205740Y179070D02*
X205740Y227330D01*
X227330Y177800D02*
X227330Y173990D01*
X204470Y173990D02*
X204470Y177800D01*
X207010Y171450D02*
X224790Y171450D01*
D15*
X215900Y167132D03*
X215900Y239268D03*
D11*
X235585Y226778D02*
X247015Y226778D01*
X235585Y226778D02*
X235585Y229953D01*
X235587Y230064D01*
X235593Y230174D01*
X235602Y230285D01*
X235616Y230395D01*
X235633Y230504D01*
X235654Y230613D01*
X235679Y230721D01*
X235708Y230828D01*
X235740Y230934D01*
X235776Y231039D01*
X235816Y231142D01*
X235859Y231244D01*
X235906Y231345D01*
X235957Y231444D01*
X236010Y231541D01*
X236067Y231635D01*
X236128Y231728D01*
X236191Y231819D01*
X236258Y231908D01*
X236328Y231994D01*
X236401Y232077D01*
X236476Y232159D01*
X236554Y232237D01*
X236636Y232312D01*
X236719Y232385D01*
X236805Y232455D01*
X236894Y232522D01*
X236985Y232585D01*
X237078Y232646D01*
X237173Y232703D01*
X237269Y232756D01*
X237368Y232807D01*
X237469Y232854D01*
X237571Y232897D01*
X237674Y232937D01*
X237779Y232973D01*
X237885Y233005D01*
X237992Y233034D01*
X238100Y233059D01*
X238209Y233080D01*
X238318Y233097D01*
X238428Y233111D01*
X238539Y233120D01*
X238649Y233126D01*
X238760Y233128D01*
X238871Y233126D01*
X238981Y233120D01*
X239092Y233111D01*
X239202Y233097D01*
X239311Y233080D01*
X239420Y233059D01*
X239528Y233034D01*
X239635Y233005D01*
X239741Y232973D01*
X239846Y232937D01*
X239949Y232897D01*
X240051Y232854D01*
X240152Y232807D01*
X240251Y232756D01*
X240348Y232703D01*
X240442Y232646D01*
X240535Y232585D01*
X240626Y232522D01*
X240715Y232455D01*
X240801Y232385D01*
X240884Y232312D01*
X240966Y232237D01*
X241044Y232159D01*
X241119Y232077D01*
X241192Y231994D01*
X241262Y231908D01*
X241329Y231819D01*
X241392Y231728D01*
X241453Y231635D01*
X241510Y231541D01*
X241563Y231444D01*
X241614Y231345D01*
X241661Y231244D01*
X241704Y231142D01*
X241744Y231039D01*
X241780Y230934D01*
X241812Y230828D01*
X241841Y230721D01*
X241866Y230613D01*
X241887Y230504D01*
X241904Y230395D01*
X241918Y230285D01*
X241927Y230174D01*
X241933Y230064D01*
X241935Y229953D01*
X241935Y226778D01*
X241935Y230588D02*
X247015Y233128D01*
X247015Y238125D02*
X247015Y241300D01*
X247013Y241411D01*
X247007Y241521D01*
X246998Y241632D01*
X246984Y241742D01*
X246967Y241851D01*
X246946Y241960D01*
X246921Y242068D01*
X246892Y242175D01*
X246860Y242281D01*
X246824Y242386D01*
X246784Y242489D01*
X246741Y242591D01*
X246694Y242692D01*
X246643Y242791D01*
X246590Y242888D01*
X246533Y242982D01*
X246472Y243075D01*
X246409Y243166D01*
X246342Y243255D01*
X246272Y243341D01*
X246199Y243424D01*
X246124Y243506D01*
X246046Y243584D01*
X245964Y243659D01*
X245881Y243732D01*
X245795Y243802D01*
X245706Y243869D01*
X245615Y243932D01*
X245522Y243993D01*
X245428Y244050D01*
X245331Y244103D01*
X245232Y244154D01*
X245131Y244201D01*
X245029Y244244D01*
X244926Y244284D01*
X244821Y244320D01*
X244715Y244352D01*
X244608Y244381D01*
X244500Y244406D01*
X244391Y244427D01*
X244282Y244444D01*
X244172Y244458D01*
X244061Y244467D01*
X243951Y244473D01*
X243840Y244475D01*
X243729Y244473D01*
X243619Y244467D01*
X243508Y244458D01*
X243398Y244444D01*
X243289Y244427D01*
X243180Y244406D01*
X243072Y244381D01*
X242965Y244352D01*
X242859Y244320D01*
X242754Y244284D01*
X242651Y244244D01*
X242549Y244201D01*
X242448Y244154D01*
X242349Y244103D01*
X242253Y244050D01*
X242158Y243993D01*
X242065Y243932D01*
X241974Y243869D01*
X241885Y243802D01*
X241799Y243732D01*
X241716Y243659D01*
X241634Y243584D01*
X241556Y243506D01*
X241481Y243424D01*
X241408Y243341D01*
X241338Y243255D01*
X241271Y243166D01*
X241208Y243075D01*
X241147Y242982D01*
X241090Y242888D01*
X241037Y242791D01*
X240986Y242692D01*
X240939Y242591D01*
X240896Y242489D01*
X240856Y242386D01*
X240820Y242281D01*
X240788Y242175D01*
X240759Y242068D01*
X240734Y241960D01*
X240713Y241851D01*
X240696Y241742D01*
X240682Y241632D01*
X240673Y241521D01*
X240667Y241411D01*
X240665Y241300D01*
X235585Y241935D02*
X235585Y238125D01*
X235585Y241935D02*
X235587Y242035D01*
X235593Y242134D01*
X235603Y242234D01*
X235616Y242332D01*
X235634Y242431D01*
X235655Y242528D01*
X235680Y242624D01*
X235709Y242720D01*
X235742Y242814D01*
X235778Y242907D01*
X235818Y242998D01*
X235862Y243088D01*
X235909Y243176D01*
X235959Y243262D01*
X236013Y243346D01*
X236070Y243428D01*
X236130Y243507D01*
X236194Y243585D01*
X236260Y243659D01*
X236329Y243731D01*
X236401Y243800D01*
X236475Y243866D01*
X236553Y243930D01*
X236632Y243990D01*
X236714Y244047D01*
X236798Y244101D01*
X236884Y244151D01*
X236972Y244198D01*
X237062Y244242D01*
X237153Y244282D01*
X237246Y244318D01*
X237340Y244351D01*
X237436Y244380D01*
X237532Y244405D01*
X237629Y244426D01*
X237728Y244444D01*
X237826Y244457D01*
X237926Y244467D01*
X238025Y244473D01*
X238125Y244475D01*
X238225Y244473D01*
X238324Y244467D01*
X238424Y244457D01*
X238522Y244444D01*
X238621Y244426D01*
X238718Y244405D01*
X238814Y244380D01*
X238910Y244351D01*
X239004Y244318D01*
X239097Y244282D01*
X239188Y244242D01*
X239278Y244198D01*
X239366Y244151D01*
X239452Y244101D01*
X239536Y244047D01*
X239618Y243990D01*
X239697Y243930D01*
X239775Y243866D01*
X239849Y243800D01*
X239921Y243731D01*
X239990Y243659D01*
X240056Y243585D01*
X240120Y243507D01*
X240180Y243428D01*
X240237Y243346D01*
X240291Y243262D01*
X240341Y243176D01*
X240388Y243088D01*
X240432Y242998D01*
X240472Y242907D01*
X240508Y242814D01*
X240541Y242720D01*
X240570Y242624D01*
X240595Y242528D01*
X240616Y242431D01*
X240634Y242332D01*
X240647Y242234D01*
X240657Y242134D01*
X240663Y242035D01*
X240665Y241935D01*
X240665Y239395D01*
D10*
X224790Y107950D02*
X224890Y107948D01*
X224989Y107942D01*
X225089Y107932D01*
X225187Y107919D01*
X225286Y107901D01*
X225383Y107880D01*
X225479Y107855D01*
X225575Y107826D01*
X225669Y107793D01*
X225762Y107757D01*
X225853Y107717D01*
X225943Y107673D01*
X226031Y107626D01*
X226117Y107576D01*
X226201Y107522D01*
X226283Y107465D01*
X226362Y107405D01*
X226440Y107341D01*
X226514Y107275D01*
X226586Y107206D01*
X226655Y107134D01*
X226721Y107060D01*
X226785Y106982D01*
X226845Y106903D01*
X226902Y106821D01*
X226956Y106737D01*
X227006Y106651D01*
X227053Y106563D01*
X227097Y106473D01*
X227137Y106382D01*
X227173Y106289D01*
X227206Y106195D01*
X227235Y106099D01*
X227260Y106003D01*
X227281Y105906D01*
X227299Y105807D01*
X227312Y105709D01*
X227322Y105609D01*
X227328Y105510D01*
X227330Y105410D01*
X207010Y107950D02*
X206910Y107948D01*
X206811Y107942D01*
X206711Y107932D01*
X206613Y107919D01*
X206514Y107901D01*
X206417Y107880D01*
X206321Y107855D01*
X206225Y107826D01*
X206131Y107793D01*
X206038Y107757D01*
X205947Y107717D01*
X205857Y107673D01*
X205769Y107626D01*
X205683Y107576D01*
X205599Y107522D01*
X205517Y107465D01*
X205438Y107405D01*
X205360Y107341D01*
X205286Y107275D01*
X205214Y107206D01*
X205145Y107134D01*
X205079Y107060D01*
X205015Y106982D01*
X204955Y106903D01*
X204898Y106821D01*
X204844Y106737D01*
X204794Y106651D01*
X204747Y106563D01*
X204703Y106473D01*
X204663Y106382D01*
X204627Y106289D01*
X204594Y106195D01*
X204565Y106099D01*
X204540Y106003D01*
X204519Y105906D01*
X204501Y105807D01*
X204488Y105709D01*
X204478Y105609D01*
X204472Y105510D01*
X204470Y105410D01*
X204470Y46990D02*
X204472Y46890D01*
X204478Y46791D01*
X204488Y46691D01*
X204501Y46593D01*
X204519Y46494D01*
X204540Y46397D01*
X204565Y46301D01*
X204594Y46205D01*
X204627Y46111D01*
X204663Y46018D01*
X204703Y45927D01*
X204747Y45837D01*
X204794Y45749D01*
X204844Y45663D01*
X204898Y45579D01*
X204955Y45497D01*
X205015Y45418D01*
X205079Y45340D01*
X205145Y45266D01*
X205214Y45194D01*
X205286Y45125D01*
X205360Y45059D01*
X205438Y44995D01*
X205517Y44935D01*
X205599Y44878D01*
X205683Y44824D01*
X205769Y44774D01*
X205857Y44727D01*
X205947Y44683D01*
X206038Y44643D01*
X206131Y44607D01*
X206225Y44574D01*
X206321Y44545D01*
X206417Y44520D01*
X206514Y44499D01*
X206613Y44481D01*
X206711Y44468D01*
X206811Y44458D01*
X206910Y44452D01*
X207010Y44450D01*
X224790Y44450D02*
X224890Y44452D01*
X224989Y44458D01*
X225089Y44468D01*
X225187Y44481D01*
X225286Y44499D01*
X225383Y44520D01*
X225479Y44545D01*
X225575Y44574D01*
X225669Y44607D01*
X225762Y44643D01*
X225853Y44683D01*
X225943Y44727D01*
X226031Y44774D01*
X226117Y44824D01*
X226201Y44878D01*
X226283Y44935D01*
X226362Y44995D01*
X226440Y45059D01*
X226514Y45125D01*
X226586Y45194D01*
X226655Y45266D01*
X226721Y45340D01*
X226785Y45418D01*
X226845Y45497D01*
X226902Y45579D01*
X226956Y45663D01*
X227006Y45749D01*
X227053Y45837D01*
X227097Y45927D01*
X227137Y46018D01*
X227173Y46111D01*
X227206Y46205D01*
X227235Y46301D01*
X227260Y46397D01*
X227281Y46494D01*
X227299Y46593D01*
X227312Y46691D01*
X227322Y46791D01*
X227328Y46890D01*
X227330Y46990D01*
X224790Y107950D02*
X207010Y107950D01*
X227330Y105410D02*
X227330Y101600D01*
X226060Y100330D01*
X204470Y101600D02*
X204470Y105410D01*
X204470Y101600D02*
X205740Y100330D01*
X226060Y52070D02*
X227330Y50800D01*
X226060Y52070D02*
X226060Y100330D01*
X205740Y52070D02*
X204470Y50800D01*
X205740Y52070D02*
X205740Y100330D01*
X227330Y50800D02*
X227330Y46990D01*
X204470Y46990D02*
X204470Y50800D01*
X207010Y44450D02*
X224790Y44450D01*
D15*
X215900Y40132D03*
X215900Y112268D03*
D11*
X235585Y99778D02*
X247015Y99778D01*
X235585Y99778D02*
X235585Y102953D01*
X235587Y103064D01*
X235593Y103174D01*
X235602Y103285D01*
X235616Y103395D01*
X235633Y103504D01*
X235654Y103613D01*
X235679Y103721D01*
X235708Y103828D01*
X235740Y103934D01*
X235776Y104039D01*
X235816Y104142D01*
X235859Y104244D01*
X235906Y104345D01*
X235957Y104444D01*
X236010Y104540D01*
X236067Y104635D01*
X236128Y104728D01*
X236191Y104819D01*
X236258Y104908D01*
X236328Y104994D01*
X236401Y105077D01*
X236476Y105159D01*
X236554Y105237D01*
X236636Y105312D01*
X236719Y105385D01*
X236805Y105455D01*
X236894Y105522D01*
X236985Y105585D01*
X237078Y105646D01*
X237173Y105703D01*
X237269Y105756D01*
X237368Y105807D01*
X237469Y105854D01*
X237571Y105897D01*
X237674Y105937D01*
X237779Y105973D01*
X237885Y106005D01*
X237992Y106034D01*
X238100Y106059D01*
X238209Y106080D01*
X238318Y106097D01*
X238428Y106111D01*
X238539Y106120D01*
X238649Y106126D01*
X238760Y106128D01*
X238871Y106126D01*
X238981Y106120D01*
X239092Y106111D01*
X239202Y106097D01*
X239311Y106080D01*
X239420Y106059D01*
X239528Y106034D01*
X239635Y106005D01*
X239741Y105973D01*
X239846Y105937D01*
X239949Y105897D01*
X240051Y105854D01*
X240152Y105807D01*
X240251Y105756D01*
X240348Y105703D01*
X240442Y105646D01*
X240535Y105585D01*
X240626Y105522D01*
X240715Y105455D01*
X240801Y105385D01*
X240884Y105312D01*
X240966Y105237D01*
X241044Y105159D01*
X241119Y105077D01*
X241192Y104994D01*
X241262Y104908D01*
X241329Y104819D01*
X241392Y104728D01*
X241453Y104635D01*
X241510Y104541D01*
X241563Y104444D01*
X241614Y104345D01*
X241661Y104244D01*
X241704Y104142D01*
X241744Y104039D01*
X241780Y103934D01*
X241812Y103828D01*
X241841Y103721D01*
X241866Y103613D01*
X241887Y103504D01*
X241904Y103395D01*
X241918Y103285D01*
X241927Y103174D01*
X241933Y103064D01*
X241935Y102953D01*
X241935Y99778D01*
X241935Y103588D02*
X247015Y106128D01*
X244475Y111125D02*
X235585Y113665D01*
X244475Y111125D02*
X244475Y117475D01*
X241935Y115570D02*
X247015Y115570D01*
X48641Y75057D02*
X48641Y-64770D01*
X179959Y-64770D02*
X179959Y75057D01*
X179070Y-64770D02*
X49530Y-64770D01*
X49276Y75184D02*
X179324Y75184D01*
X165100Y12700D02*
X158750Y-50800D01*
X127000Y-50800D01*
X120650Y12700D01*
X63500Y12700D02*
X69850Y-50800D01*
X101600Y-50800D01*
X107950Y12700D01*
M02*
