M48
;GenerationSoftware,Autodesk,EAGLE,9.3.2*%
;CreationDate,2019-04-06T11:19:28Z*%
FMAT,2
ICI,OFF
METRIC,TZ,000.000
T3C0.813
T2C0.914
T1C2.311
%
G90
M71
T1
X17996Y3810
X4864Y3810
T2
X5080Y33020
X5080Y35560
X5080Y12700
X5080Y15240
X7937Y6528
X10427Y6528
X12433Y6528
X14922Y6528
T3
X11430Y35560
X13970Y35560
X8890Y29210
X19050Y29210
X21590Y38100
X21590Y27940
X5080Y19050
X5080Y29210
X10160Y17780
X12700Y17780
X12700Y25400
X10160Y25400
X15240Y17780
X17780Y17780
X15240Y25400
X17780Y25400
X11430Y12700
X16510Y12700
X21590Y25400
X21590Y15240
X21590Y12700
X21590Y2540
M30