M48
;GenerationSoftware,Autodesk,EAGLE,9.3.2*%
;CreationDate,2019-04-06T13:50:38Z*%
FMAT,2
ICI,OFF
METRIC,TZ,000.000
T3C0.813
T2C0.914
T1C2.311
%
G90
M71
T1
X19901Y2921
X6769Y2921
T2
X3810Y20955
X3810Y23495
X20955Y10795
X23495Y10795
X9843Y5639
X12332Y5639
X14338Y5639
X16828Y5639
T3
X14605Y10795
X9525Y10795
X23495Y22225
X20955Y22225
X1905Y29845
X12065Y29845
X24765Y29845
X14605Y29845
X8255Y14605
X18415Y14605
X9525Y18415
X12065Y18415
X12065Y26035
X9525Y26035
X14605Y18415
X17145Y18415
X14605Y26035
X17145Y26035
M30